<svg xmlns="http://www.w3.org/2000/svg" xmlns:xlink="http://www.w3.org/1999/xlink" width="244" height="110" viewBox="0 0 244 110">
  <defs>
    <clipPath id="clip-path">
      <rect id="矩形_2071" data-name="矩形 2071" width="244" height="110" transform="translate(149 5989)" fill="#fff" stroke="#707070" stroke-width="1"/>
    </clipPath>
  </defs>
  <g id="blockBody" transform="translate(-149 -5989)" clip-path="url(#clip-path)">
    <path id="联合_7" data-name="联合 7" d="M133.142,323.459l307.2-147,6.053,8.021-307.2,147Zm-11.1-14.705,307.2-147,6.052,8.021-307.2,147Zm-11.1-14.705,307.2-147,6.053,8.021-307.2,147Zm-11.1-14.706,307.2-147,6.052,8.021-307.2,147Zm-11.1-14.705,307.2-147,6.053,8.021-307.2,147ZM77.666,249.932l307.2-147,6.052,8.021-307.2,147Zm-11.1-14.705,307.2-147,6.052,8.021-307.2,147ZM55.476,220.522l307.2-147,6.052,8.021-307.2,147Zm-11.1-14.705,307.2-147,6.052,8.021-307.2,147Zm-11.1-14.706,307.2-147,6.052,8.021-307.2,147Zm-11.1-14.705,307.2-147,6.052,8.021-307.2,147ZM11.1,161.7l307.2-147,6.052,8.021-307.2,147ZM0,147,307.2,0l6.052,8.021-307.2,147Z" transform="translate(47.715 5875.117)" fill="rgba(23,88,142,0.54)"/>
  </g>
</svg>
