<?xml version="1.0" standalone="no"?><!DOCTYPE svg PUBLIC "-//W3C//DTD SVG 1.1//EN" "http://www.w3.org/Graphics/SVG/1.1/DTD/svg11.dtd"><svg t="1663222939015" class="icon" viewBox="0 0 1024 1024" version="1.1" xmlns="http://www.w3.org/2000/svg" p-id="1440" xmlns:xlink="http://www.w3.org/1999/xlink" width="200" height="200"><path d="M915.8912 244.5056c0-67.0208-54.3744-121.3952-121.3952-121.3952-67.072 0-121.4208 54.3744-121.4208 121.3952 0 56.4992 38.7584 103.552 91.0336 117.12l0 95.3088-95.3344 0c-13.5424-52.2752-60.5952-91.0592-117.0688-91.0592-56.4992 0-103.6288 38.784-117.12 91.0592l-156.0064 0 0 155.9808c-52.2496 13.5424-91.0592 60.6208-91.0592 117.0688 0 67.0976 54.3488 121.4464 121.4208 121.4464 67.0208 0 121.3952-54.3488 121.3952-121.4464 0-56.448-38.8096-103.6032-91.0848-117.0688L339.2512 517.632l95.3088 0c13.4912 52.2752 60.5696 91.0336 117.12 91.0336 56.4736 0 103.5776-38.7584 117.0688-91.0336l156.0576 0 0-156.0064C877.1072 348.1088 915.8912 301.0048 915.8912 244.5056M369.6384 729.984c0 33.5872-27.2128 60.7744-60.6976 60.7744-33.536 0-60.7232-27.2128-60.7232-60.7744 0-33.4592 27.2128-60.672 60.7232-60.672C342.4512 669.312 369.6384 696.5248 369.6384 729.984M551.7056 547.968c-33.536 0-60.7232-27.2128-60.7232-60.6976 0-33.536 27.2128-60.7232 60.7232-60.7232s60.6976 27.2128 60.6976 60.7232C612.4032 520.7808 585.216 547.968 551.7056 547.968M794.496 305.2032c-33.536 0-60.7232-27.1872-60.7232-60.6976s27.2128-60.6976 60.7232-60.6976c33.5104 0 60.6976 27.1872 60.6976 60.6976S828.0064 305.2032 794.496 305.2032" p-id="1441"></path></svg>