<svg xmlns="http://www.w3.org/2000/svg" xmlns:xlink="http://www.w3.org/1999/xlink" width="79" height="72" viewBox="0 0 79 72">
  <defs>
    <filter id="路径_11137" x="3.5" y="0" width="62.33" height="72" filterUnits="userSpaceOnUse">
      <feOffset input="SourceAlpha"/>
      <feGaussianBlur stdDeviation="6" result="blur"/>
      <feFlood flood-color="#0cf" flood-opacity="0.922"/>
      <feComposite operator="in" in2="blur"/>
      <feComposite in="SourceGraphic"/>
    </filter>
    <filter id="路径_11138" x="17.812" y="6.345" width="57.688" height="64.964" filterUnits="userSpaceOnUse">
      <feOffset input="SourceAlpha"/>
      <feGaussianBlur stdDeviation="6" result="blur-2"/>
      <feFlood flood-color="#0cf" flood-opacity="0.922"/>
      <feComposite operator="in" in2="blur-2"/>
      <feComposite in="SourceGraphic"/>
    </filter>
  </defs>
  <g id="fjIcon" transform="translate(-2268 -4069.912)">
    <g id="fjIcon-2" data-name="fjIcon" transform="translate(-236 49)">
      <rect id="矩形_2097" data-name="矩形 2097" width="77" height="58" transform="translate(2505 4028)" fill="rgba(2,32,71,0.54)"/>
      <path id="路径_11133" data-name="路径 11133" d="M2279.765,4649.425V4628.81h20.1" transform="translate(225.235 -600.986)" fill="none" stroke="#145e71" stroke-width="2"/>
      <path id="路径_11134" data-name="路径 11134" d="M2279.765,4649.425V4628.81h20.1" transform="translate(4861.765 8714.811) rotate(180)" fill="none" stroke="#145e71" stroke-width="2"/>
    </g>
    <g id="风电场" transform="translate(2267.207 4087.23)">
      <g transform="matrix(1, 0, 0, 1, 0.79, -17.32)" filter="url(#路径_11137)">
        <path id="路径_11137-2" data-name="路径 11137" d="M31.957,16.086a.374.374,0,0,0-.176-.253.259.259,0,0,0-.3.017q-3.156,1.927-6.153,4.11c-1.747,1.356-2.911,2.172-3.033,2.968a.534.534,0,0,0,.071.253.608.608,0,0,0,.529.253c1.411-.036,6.1-2.3,10.193-4.617a.3.3,0,0,0,.159-.253.354.354,0,0,0-.106-.29,3.443,3.443,0,0,1-1.183-2.188ZM35.4,18.04a2.467,2.467,0,1,0-2.3-2.461A2.436,2.436,0,0,0,35.4,18.04ZM33.88,12.229a.3.3,0,0,0,.3.036,3.284,3.284,0,0,1,2.434,0,.241.241,0,0,0,.125.02.3.3,0,0,0,.176-.056.321.321,0,0,0,.14-.27q-.036-3.755-.442-7.493A21.8,21.8,0,0,0,36.19,1.9C35.978,1.281,36,.81,35.4.682c-.6.128-.6.6-.794,1.214a58.749,58.749,0,0,0-.863,10.063.37.37,0,0,0,.141.27ZM45.5,20.192c-1.764-1.339-4.056-2.9-6.189-4.215a.349.349,0,0,0-.3-.02.317.317,0,0,0-.176.253A3.545,3.545,0,0,1,37.6,18.366a.366.366,0,0,0-.122.29.334.334,0,0,0,.158.27c4.127,2.336,8.994,4.817,10.4,4.85a.565.565,0,0,0,.512-.234.5.5,0,0,0,.071-.253c-.141-.814-1.359-1.682-3.123-3.1Zm-9.77-.507h-.564a1.173,1.173,0,0,0-1.129,1.195l-.564,14.607A1.173,1.173,0,0,0,34.6,36.682h1.692a1.172,1.172,0,0,0,1.129-1.195L36.861,20.88a1.173,1.173,0,0,0-1.129-1.195h0Z" transform="translate(-0.79 17.32)" fill="#fff"/>
      </g>
      <g transform="matrix(1, 0, 0, 1, 0.79, -17.32)" filter="url(#路径_11138)">
        <path id="路径_11138-2" data-name="路径 11138" d="M527.433,372.046a.264.264,0,0,0-.138-.205.25.25,0,0,0-.254,0q-2.593,1.552-5.065,3.293c-1.427,1.081-2.394,1.75-2.509,2.395a.374.374,0,0,0,.046.206.529.529,0,0,0,.437.208c1.151-.024,5.019-1.842,8.4-3.708a.338.338,0,0,0,.138-.206.27.27,0,0,0-.092-.23,2.837,2.837,0,0,1-.967-1.75Zm2.855,1.566a1.98,1.98,0,1,0-1.98-1.98A1.98,1.98,0,0,0,530.288,373.612Zm-1.267-4.672a.246.246,0,0,0,.254.021,2.932,2.932,0,0,1,2.026,0,.127.127,0,0,0,.092.025.427.427,0,0,0,.16-.046.282.282,0,0,0,.116-.23,57.316,57.316,0,0,0-.368-6.032,14.819,14.819,0,0,0-.346-2.072c-.16-.485-.16-.875-.667-.967-.484.113-.484.482-.669.967a45.8,45.8,0,0,0-.713,8.079A.3.3,0,0,0,529.021,368.94Zm9.578,6.4q-2.472-1.814-5.111-3.384a.318.318,0,0,0-.252-.024.264.264,0,0,0-.138.208,2.782,2.782,0,0,1-1.013,1.726.218.218,0,0,0-.092.23.222.222,0,0,0,.138.208c3.408,1.864,7.414,3.868,8.565,3.89a.465.465,0,0,0,.414-.184.338.338,0,0,0,.046-.206c-.092-.624-1.084-1.335-2.557-2.465Zm-8.058-.39h-.46a.952.952,0,0,0-.921.967l-.46,11.718a.952.952,0,0,0,.921.967h1.405a.952.952,0,0,0,.921-.967l-.46-11.718a.952.952,0,0,0-.945-.967Z" transform="translate(-483.66 -335.29)" fill="#fff"/>
      </g>
    </g>
  </g>
</svg>
