<svg xmlns="http://www.w3.org/2000/svg" xmlns:xlink="http://www.w3.org/1999/xlink" width="244" height="110" viewBox="0 0 244 110">
  <defs>
    <style>
      .cls-1 {
        fill: #fff;
        stroke: #707070;
      }

      .cls-2 {
        clip-path: url(#clip-path);
      }

      .cls-3 {
        fill: rgba(23,88,142,0.54);
      }

      .cls-4 {
        fill: #0e6a9c;
      }

      .cls-5 {
        fill: #0681c2;
      }

      .cls-6 {
        fill: #0ea7f7;
      }
    </style>
    <clipPath id="clip-path">
      <rect id="矩形_2071" data-name="矩形 2071" class="cls-1" width="244" height="110" transform="translate(149 5989)"/>
    </clipPath>
  </defs>
  <g id="headerImg" transform="translate(-2694 -4135)">
    <g id="蒙版组_2" data-name="蒙版组 2" class="cls-2" transform="translate(2545 -1854)">
      <path id="联合_7" data-name="联合 7" class="cls-3" d="M133.142,323.459l307.2-147,6.053,8.021-307.2,147Zm-11.1-14.705,307.2-147,6.052,8.021-307.2,147Zm-11.1-14.705,307.2-147,6.053,8.021-307.2,147Zm-11.1-14.706,307.2-147,6.052,8.021-307.2,147Zm-11.1-14.705,307.2-147,6.053,8.021-307.2,147ZM77.666,249.932l307.2-147,6.052,8.021-307.2,147Zm-11.1-14.705,307.2-147,6.052,8.021-307.2,147ZM55.476,220.522l307.2-147,6.052,8.021-307.2,147Zm-11.1-14.705,307.2-147,6.052,8.021-307.2,147Zm-11.1-14.706,307.2-147,6.052,8.021-307.2,147Zm-11.1-14.705,307.2-147,6.052,8.021-307.2,147ZM11.1,161.7l307.2-147,6.052,8.021-307.2,147ZM0,147,307.2,0l6.052,8.021-307.2,147Z" transform="translate(47.715 5875.117)"/>
    </g>
    <rect id="矩形_2072" data-name="矩形 2072" class="cls-4" width="244" height="30" transform="translate(2694 4135)"/>
    <path id="路径_11021" data-name="路径 11021" class="cls-5" d="M0,0H19l7.419,14.9L19,30H0Z" transform="translate(2694 4135)"/>
    <path id="路径_11024" data-name="路径 11024" class="cls-5" d="M26.419,0h-19L0,14.9,7.419,30h19Z" transform="translate(2911.581 4135)"/>
    <path id="路径_11022" data-name="路径 11022" class="cls-6" d="M0,0H11.808l4.611,14.9L11.808,30H0Z" transform="translate(2694 4135)"/>
    <path id="路径_11023" data-name="路径 11023" class="cls-6" d="M16.419,0H4.611L0,14.9,4.611,30H16.419Z" transform="translate(2921.581 4135)"/>
  </g>
</svg>
