<svg xmlns="http://www.w3.org/2000/svg" xmlns:xlink="http://www.w3.org/1999/xlink" width="446.573" height="573.522" viewBox="0 0 446.573 573.522">
  <defs>
    <style>
      .cls-1 {
        fill: rgba(4,71,146,0.44);
        stroke: #0e94fc;
        stroke-linecap: round;
        stroke-linejoin: round;
        stroke-width: 2px;
        fill-rule: evenodd;
        opacity: 0.59;
      }

      .cls-2, .cls-4, .cls-7 {
        fill: #fff;
      }

      .cls-2, .cls-4 {
        font-size: 16px;
      }

      .cls-2, .cls-5 {
        font-family: YuGothicUI-Regular, Yu Gothic UI;
      }

      .cls-3, .cls-4 {
        font-family: MicrosoftJhengHeiUIRegular, Microsoft JhengHei UI;
      }

      .cls-6 {
        fill: #ffef10;
      }

      .cls-8 {
        filter: url(#路径_11028-2);
      }

      .cls-9 {
        filter: url(#路径_11027-2);
      }

      .cls-10 {
        filter: url(#路径_11028);
      }

      .cls-11 {
        filter: url(#路径_11027);
      }

      .cls-12 {
        filter: url(#路径_11030-5);
      }

      .cls-13 {
        filter: url(#路径_11029-5);
      }

      .cls-14 {
        filter: url(#路径_11030-4);
      }

      .cls-15 {
        filter: url(#路径_11029-4);
      }

      .cls-16 {
        filter: url(#路径_11030-3);
      }

      .cls-17 {
        filter: url(#路径_11029-3);
      }

      .cls-18 {
        filter: url(#路径_11030-2);
      }

      .cls-19 {
        filter: url(#路径_11029-2);
      }

      .cls-20 {
        filter: url(#路径_11030);
      }

      .cls-21 {
        filter: url(#路径_11029);
      }
    </style>
    <filter id="路径_11029" x="229.947" y="55.471" width="38.596" height="45.438" filterUnits="userSpaceOnUse">
      <feOffset input="SourceAlpha"/>
      <feGaussianBlur stdDeviation="3" result="blur"/>
      <feFlood flood-color="#03b4f6" flood-opacity="0.588"/>
      <feComposite operator="in" in2="blur"/>
      <feComposite in="SourceGraphic"/>
    </filter>
    <filter id="路径_11030" x="243.342" y="65.142" width="30.994" height="35.354" filterUnits="userSpaceOnUse">
      <feOffset input="SourceAlpha"/>
      <feGaussianBlur stdDeviation="3" result="blur-2"/>
      <feFlood flood-color="#03b4f6" flood-opacity="0.588"/>
      <feComposite operator="in" in2="blur-2"/>
      <feComposite in="SourceGraphic"/>
    </filter>
    <filter id="路径_11029-2" x="175.753" y="125.533" width="38.596" height="45.438" filterUnits="userSpaceOnUse">
      <feOffset input="SourceAlpha"/>
      <feGaussianBlur stdDeviation="3" result="blur-3"/>
      <feFlood flood-color="#03b4f6" flood-opacity="0.588"/>
      <feComposite operator="in" in2="blur-3"/>
      <feComposite in="SourceGraphic"/>
    </filter>
    <filter id="路径_11030-2" x="189.148" y="135.204" width="30.994" height="35.354" filterUnits="userSpaceOnUse">
      <feOffset input="SourceAlpha"/>
      <feGaussianBlur stdDeviation="3" result="blur-4"/>
      <feFlood flood-color="#03b4f6" flood-opacity="0.588"/>
      <feComposite operator="in" in2="blur-4"/>
      <feComposite in="SourceGraphic"/>
    </filter>
    <filter id="路径_11029-3" x="140.947" y="242.252" width="38.596" height="45.438" filterUnits="userSpaceOnUse">
      <feOffset input="SourceAlpha"/>
      <feGaussianBlur stdDeviation="3" result="blur-5"/>
      <feFlood flood-color="#03b4f6" flood-opacity="0.588"/>
      <feComposite operator="in" in2="blur-5"/>
      <feComposite in="SourceGraphic"/>
    </filter>
    <filter id="路径_11030-3" x="154.342" y="251.923" width="30.994" height="35.354" filterUnits="userSpaceOnUse">
      <feOffset input="SourceAlpha"/>
      <feGaussianBlur stdDeviation="3" result="blur-6"/>
      <feFlood flood-color="#03b4f6" flood-opacity="0.588"/>
      <feComposite operator="in" in2="blur-6"/>
      <feComposite in="SourceGraphic"/>
    </filter>
    <filter id="路径_11029-4" x="111.753" y="442.971" width="38.596" height="45.438" filterUnits="userSpaceOnUse">
      <feOffset input="SourceAlpha"/>
      <feGaussianBlur stdDeviation="3" result="blur-7"/>
      <feFlood flood-color="#03b4f6" flood-opacity="0.588"/>
      <feComposite operator="in" in2="blur-7"/>
      <feComposite in="SourceGraphic"/>
    </filter>
    <filter id="路径_11030-4" x="125.148" y="452.642" width="30.994" height="35.354" filterUnits="userSpaceOnUse">
      <feOffset input="SourceAlpha"/>
      <feGaussianBlur stdDeviation="3" result="blur-8"/>
      <feFlood flood-color="#03b4f6" flood-opacity="0.588"/>
      <feComposite operator="in" in2="blur-8"/>
      <feComposite in="SourceGraphic"/>
    </filter>
    <filter id="路径_11029-5" x="154.142" y="259.065" width="38.596" height="45.438" filterUnits="userSpaceOnUse">
      <feOffset input="SourceAlpha"/>
      <feGaussianBlur stdDeviation="3" result="blur-9"/>
      <feFlood flood-color="#03b4f6" flood-opacity="0.588"/>
      <feComposite operator="in" in2="blur-9"/>
      <feComposite in="SourceGraphic"/>
    </filter>
    <filter id="路径_11030-5" x="167.537" y="268.736" width="30.994" height="35.354" filterUnits="userSpaceOnUse">
      <feOffset input="SourceAlpha"/>
      <feGaussianBlur stdDeviation="3" result="blur-10"/>
      <feFlood flood-color="#03b4f6" flood-opacity="0.588"/>
      <feComposite operator="in" in2="blur-10"/>
      <feComposite in="SourceGraphic"/>
    </filter>
    <filter id="路径_11027" x="177.338" y="195.788" width="44.328" height="38.777" filterUnits="userSpaceOnUse">
      <feOffset input="SourceAlpha"/>
      <feGaussianBlur stdDeviation="3" result="blur-11"/>
      <feFlood flood-color="#03b4f6" flood-opacity="0.588"/>
      <feComposite operator="in" in2="blur-11"/>
      <feComposite in="SourceGraphic"/>
    </filter>
    <filter id="路径_11028" x="176.246" y="195.471" width="46.702" height="30.276" filterUnits="userSpaceOnUse">
      <feOffset input="SourceAlpha"/>
      <feGaussianBlur stdDeviation="3" result="blur-12"/>
      <feFlood flood-color="#03b4f6" flood-opacity="0.588"/>
      <feComposite operator="in" in2="blur-12"/>
      <feComposite in="SourceGraphic"/>
    </filter>
    <filter id="路径_11027-2" x="205.338" y="296.695" width="44.328" height="38.777" filterUnits="userSpaceOnUse">
      <feOffset input="SourceAlpha"/>
      <feGaussianBlur stdDeviation="3" result="blur-13"/>
      <feFlood flood-color="#03b4f6" flood-opacity="0.588"/>
      <feComposite operator="in" in2="blur-13"/>
      <feComposite in="SourceGraphic"/>
    </filter>
    <filter id="路径_11028-2" x="204.246" y="296.377" width="46.702" height="30.276" filterUnits="userSpaceOnUse">
      <feOffset input="SourceAlpha"/>
      <feGaussianBlur stdDeviation="3" result="blur-14"/>
      <feFlood flood-color="#03b4f6" flood-opacity="0.588"/>
      <feComposite operator="in" in2="blur-14"/>
      <feComposite in="SourceGraphic"/>
    </filter>
  </defs>
  <g id="jiangxiMap" transform="translate(-737.053 -186.529)">
    <g id="江西省" transform="translate(738.053 187.529)">
      <path id="路径_10996" data-name="路径 10996" class="cls-1" d="M909.424,375.259h2.117l2.823-2.117,1.411-2.822h1.411l3.528,4.939.706-1.411.706.706,1.411,7.761,5.645,2.117,1.411,2.117,2.117-.706,2.117,2.822h1.411l4.234-4.939-.706-4.233,2.823-2.822,3.528-1.411v-1.411l1.411,1.411,4.234-1.411,2.823-2.822,2.117,1.411,2.823-2.822h2.823l1.411,1.411,1.411-.706,2.823,2.117v-3.528l1.411-2.117h2.117l-.706-2.822,2.823-2.117,4.234,1.411,2.117-.706,1.411-2.117,1.411.706,1.411-1.411,7.762-.706v-5.645l2.117-2.117-.706-2.117-2.823-.706-2.117-2.117,2.823-3.528,9.879-4.939,1.411-2.117-1.411-7.056-2.117-1.411,2.117-2.822,1.411-5.645-5.645-1.411,2.823-1.411-2.823-4.939v-4.939l2.117-2.117-1.411-2.117,1.411-.706v-2.117l-2.117-1.411.706-.706-2.823-.706,1.411-1.411L993.4,285.65l-7.057-3.528-2.117-8.467-1.411-.706-4.94,2.117-.706-1.411h1.411l1.411-2.117-2.117-1.411-1.411-2.822-4.94-.706-.706-2.822-1.411,2.117v-1.411l-.706.706-2.823-4.234.706-3.528-3.528-2.822,1.411-1.411-1.411-1.411.706-2.117-1.411-2.117.706-4.233,2.823-.706,1.411-2.117-1.411-4.939h7.762l2.117-2.117-1.411-.706,4.234-3.528v-3.528l-7.057-5.645.706-2.117-1.411-2.117,2.117-1.411-.706-1.411-3.528-2.822-4.234-1.411-.706-2.822-2.823-.706h-2.117l-.706,1.411L956,205.919l-2.117,2.117h-5.645l-5.645-2.822-3.528,2.117-2.117-.706-1.411,1.411h-2.823l-1.411-.706-.706-3.528-2.823-2.822-5.645,3.528L918.6,203.1l-.706.706-1.411-2.117.706-4.939h-3.528l-4.234-4.234.706-5.645L906.6,183.34v-7.056l-2.823.706-.706,2.822-2.117.706-2.117-4.234-4.94,2.822-2.117-.706V170.64l-3.528-2.117-6.351,1.411-1.411,2.117v3.528l-4.94,2.822,2.117,2.822,2.823.706.706,2.117-2.823,2.822,1.411,2.117-.706,2.117-5.645,2.822-6.351.706-.706,2.117-2.823.706-6.351,4.233-2.117,3.528-2.823,1.411-3.528-.706.706-2.117-1.411-.706h-1.411l-3.528,3.528V203.8l-6.351-4.939,2.823-3.528v-1.411h-2.117v-1.411h1.411l1.411-4.233h1.411l5.645-7.056,1.411,1.411,2.823-2.117,6.351-8.467,1.411-5.645-.706-2.117-2.117-1.411-2.823,2.117-.706-4.939-2.117,1.411-3.528-5.645L838.151,153l-6.351,1.411-2.117,4.939-1.411,11.289-7.057.706L801.456,183.34l-2.823-3.528-2.117-.706-6.351.706-13.408,9.173-4.234,1.411-9.174-3.528-7.057-4.234-4.94-4.939-3.528-1.411L733.712,177.7l-.706,2.117-2.117.706-1.411,4.939.706,2.117L719.6,198.157l-.706-.706-4.234,1.411-1.411,2.117-2.117-1.411v-2.822h-9.879l-2.823-2.822-1.411.706v1.411l2.823,1.411-1.411,4.233.706.706-1.411.706h4.94l-1.411,1.411-.706,3.528.706,4.234-6.351-1.411,1.411-2.822-1.411-1.411-4.94,1.411-2.823-2.117-2.117.706-.706,1.411-1.411-.706-.706,3.528h2.117l-1.411,2.117-1.411.706-1.411-.706v-1.411l-2.117.706v-2.117l-3.528,5.645,1.411.706.706,2.822,2.117-.706V215.8l2.823-1.411-.706,1.411,1.411,1.411-1.411,1.411v2.822h-1.411l-2.117,2.822h-1.411l-.706-1.411-4.94,2.822-2.823-.706-2.117,2.117h-2.117v-2.117l-1.411-1.411-4.234.706-4.94,1.411-2.823,2.822-6.351,2.822h-4.94l-2.117-1.411.706-.706-9.174,2.117-3.528-4.234L620.1,228.5v6.35l-1.411,2.822.706,2.822h-2.823l-1.411,1.411-5.645,1.411-7.762.706v2.117l-2.117,1.411v2.117l-4.94,2.117-.706,2.822-2.117.706-.706,4.939,2.117,10.584.706.706,2.823-1.411v2.822l2.117,3.528.706-1.411h2.117l.706,2.117-1.411,1.411,2.117,4.234,4.234-1.411.706,1.411h1.411l.706,2.822-1.411,1.411,1.411,2.117V292l-2.823,5.645.706,8.467-4.234,4.939,1.411,2.117,3.528.706,1.411,2.117,5.645,2.822-2.117,4.234-2.117.706,2.117.706,2.823,3.528h2.823l-.706,2.822,1.411,1.411-1.411,1.411.706,1.411-3.528,3.528h-1.411l-1.411,4.233h-3.528v1.411l-3.528,3.528v2.117l-4.94,1.411-2.823-.706-2.823,1.411,2.117,6.35,1.411.706,1.411,3.528-1.411,2.822-6.351-.706.706,2.117h-3.528l-2.823,2.822h-2.117l-.706-1.411-2.117,3.528-2.117-1.411-6.351,4.939-2.117,6.35,2.823,1.411.706,6.35-6.351,5.645.706,1.411-7.762,9.173-1.411,4.939.706.706L558,415.477v2.117l2.823.706.706-1.411.706,1.411v2.117l-2.823,2.822v4.234l2.823,2.822-2.117,1.411,1.411,4.233,3.528-.706,3.528,2.117,6.351-3.528h4.94l4.94-2.117v3.528l-2.117,4.939,2.117,1.411-2.117,5.645-7.057,11.289v2.822l2.117.706.706-1.411,1.411,5.645L582.7,469.1h1.411l2.117,5.645h2.823l.706,1.411-2.117,2.117v2.117l-1.411.706v4.233h-1.411l-3.528,5.645,2.117,7.056v7.056l.706,1.411,1.411-.706v2.117l2.117,2.117h8.468l2.117,2.822,7.762,1.411-3.528,9.878,2.823-.706-1.411,7.761h-1.411l-3.528,3.528,1.411,3.528-2.117,4.233.706,2.822-4.94,2.822.706,1.411-3.528,4.234v2.117l1.411,1.411,4.94-3.528,1.411.706.706-1.411v1.411l1.411-.706.706,2.117,2.823-.706,4.234-3.528,3.528-.706.706,1.411,2.823-.706,1.411,2.822-1.411.706,2.117,2.117-4.94,2.822-7.057,2.117v3.528l-5.645-1.411-1.411,4.939-2.117,1.411v1.411l2.117,1.411v9.878l-5.645,5.645-.706,5.645-4.234,4.939,1.411,7.056,2.823,4.939,2.117,1.411-.706,2.117,1.411,1.411-.706,3.528h-1.411l-2.117,2.822.706,2.822-1.411,1.411.706,1.411h4.94l-1.411,2.822.706,1.411,2.117,1.411h2.823l-2.117,1.411,2.823,2.117-2.117,2.117,2.117,2.117h-1.411l-2.117,2.822,2.117,2.822,2.117-2.822,2.117.706,1.411-2.117,5.645-2.117h2.823l1.411,2.117,7.057-.706.706,1.411,2.117-4.939,5.645,2.117,4.234-2.822,2.117-4.234,2.823,1.411,2.823-1.411-.706-1.411,2.823-1.411,4.234,2.117-.706.706h2.117v2.822h1.411l2.117,3.528,2.117-.706,1.411,1.411h2.823l1.411,3.528,2.117.706.706,3.528h-1.411v1.411l-.706-.706-2.823,1.411v2.117l-1.411.706v1.411l4.94,2.117v2.822l-6.351,2.822-2.117,2.822-7.762-.706L644.8,670.9h-1.411l-1.411,2.117-4.234.706v1.411l-5.645,2.822.706,3.528H631.39l1.411,1.411v2.117l-5.645,7.056-.706,6.35-3.528,1.411-2.117,3.528-9.174.706,2.117,3.528h-1.411l9.174,2.117,2.823,6.35,2.823-1.411.706.706v-1.411l4.234,2.822-.706,2.822,1.411.706v2.822h1.411l.706,1.411,9.879-7.056.706,1.411,4.234.706,2.823-4.234,1.411.706,2.823-1.411,1.411,4.939,2.117.706,2.823-3.528-.706-4.939h4.94l3.528,2.117,2.117-1.411,1.411.706-.706,1.411,1.411,2.117,2.117-2.117,2.117-8.467,3.528,1.411,2.117-2.117,4.234.706,2.823-4.234,2.823,1.411.706,2.117,2.117,1.411.706-2.117,4.234-1.411,2.117.706-.706-2.117,5.645-2.117.706.706,2.117-2.822,2.117-.706,4.94,2.822,1.411-4.234h1.411l2.117-2.117,4.94,2.822,5.645,5.645-.706.706,2.823,2.117,1.411,6.35,2.117.706,1.411-1.411,4.94,2.117,2.117,2.117v3.528l5.645.706,3.528-2.822h5.645l-5.645-6.35v-2.822l-2.117-.706,2.823-.706,1.411-2.117-2.823-.706-2.117-3.528,2.117-3.528-1.411-2.117,1.411-4.234h1.411l-.706-2.117h2.117l-.706-1.411,2.117-3.528,2.117.706,1.411,2.822,4.234-.706-2.117-2.117-.706-2.117,1.411-1.411-2.117-2.117v-1.411l.706-.706,3.528,2.117v-1.411L769,673.72h-2.117l-.706-2.822h1.411l2.117-2.117.706.706.706-1.411-1.411-3.528-2.823-.706.706-1.411-1.411-.706,1.411-2.822-.706-1.411h-2.117v-5.645h2.117L769,649.731h2.823l1.411-6.35,3.528.706,1.411-1.411.706-2.117-.706-2.117h-1.411l1.411-1.411v-4.939l1.411-.706v-5.645h-1.411v-2.117l2.823-2.117v-2.822l2.823-2.117-2.117-4.233v-2.117l1.411-1.411.706.706-.706-6.35.706.706v-1.411h3.528V600.34l1.411-.706.706-2.822,3.528-.706v1.411L794.4,594.7l-4.234-4.233-.706-3.528,5.645-4.234,8.468-1.411,4.234-4.234,3.528-.706-.706-4.233,2.117-2.822h1.411v-1.411l2.117-2.117,6.351-4.939-2.117-6.35-2.823,2.117-4.234-1.411.706-4.234-.706.706-.706-3.528,1.411-3.528,2.117-1.411-.706-.706,2.117-1.411V539.66l4.94-3.528,2.117-4.939,4.234,2.117-.706,2.117,4.234-.706.706-6.35,2.823-2.822v-1.411l-4.234-.706.706-.706-1.411-.706,1.411-.706-3.528-4.233-2.117-.706,2.117-4.233.706-4.939-2.117-.706-3.528-5.645,4.234-6.35-.706-7.056,4.94-4.939,4.94-7.761,4.234-2.822,4.94.706,2.117-2.822h6.351l4.234-2.117h2.823l.706,1.411,2.823-4.233,7.762-4.234-.706-4.939,4.94-5.645h1.411l3.528-3.528,1.411-4.939-.706-1.411H881.2v-2.117l-3.528-1.411v-4.234l2.823-2.822-.706-4.939-1.411-.706v-7.761l-2.117-2.822-2.823,2.117-2.823-1.411L869.2,407.01l3.528-4.233h1.411l2.823,4.233,1.411-.706.706-1.411-1.411-2.822,1.411-2.117,7.762,1.411.706-2.822,2.117-1.411,1.411.706v-1.411h1.411l1.411-2.117v-2.117l1.411.706,1.411-1.411-.706-5.645-.706-1.411H893.9v-2.822h2.117l1.411-2.117,2.117,1.411-.706,2.117h2.117l.706-2.117,6.351-3.528ZM841.68,192.513v0Zm.706,0-.706.706,1.411-.706Z" transform="translate(-558 -153)"/>
      <path id="路径_10997" data-name="路径 10997" class="cls-1" d="M800.52,305.97v1.408l-1.408.7,4.225,6.337,2.112,6.337-2.112,3.52-1.408-1.408-.7,4.929h-1.408l-1.408,2.816H797l1.408,3.52,2.112,1.408v-1.408l4.929-.7,2.816,1.408-1.408,2.112.7,2.816-2.112,9.857,2.112.7,2.112-1.408.7,2.112-2.112,1.408,1.408,4.225h-1.408l.7,2.112-2.112,1.408.7,7.745h-1.408l-.7,1.408h4.225l3.52-2.816v1.408l2.112.7,1.408,2.112-2.112,3.521,1.408,1.408,4.225-2.112-2.112-1.408.7-.7,8.449,1.408,2.816-2.112v-2.112H831.5l2.816,2.112,2.816,9.857,4.929-3.52,2.112,2.112-.7,1.408,1.408.7,1.408-1.408h8.449l4.929,6.337,2.816.7,2.112,4.224H866.7l2.112,2.112,1.408-4.225,4.929-2.112.7.7.7-2.816,3.52,1.408.7,2.112,1.408-2.816,3.52-1.408h4.225l1.408-4.225,2.816-3.52-.7-2.112,2.112-3.521,3.52-2.816-.7-9.153-4.929-5.633-4.929-8.449v-6.337l-1.408-2.112-3.52-1.408-1.408-1.408.7-.7-2.112.7-.7-1.408-2.816,1.408v-2.816l-4.225-3.52-2.112.7-1.408-2.816v-2.816l1.408-2.112,2.112.7,6.337-1.408,3.52-7.041,2.112-.7-.7-10.561-2.112.7-7.745-6.337-2.112.7-.7,2.112,1.408,3.52v4.225l-3.52,1.408v-3.52l-5.633-2.112-2.816-3.52,2.816-3.52-7.745-.7-6.337,3.52-1.408-2.112-1.408,2.112-.7-1.408-3.52,1.408-.7-.7-1.408,2.112v3.52l-2.816,2.112-2.112,4.225-4.224,1.408v5.633l-1.408,1.408-3.52.7-3.52-4.225v1.408l-5.633-2.112,2.112-.7-3.521.7L813.9,311.6v-1.408l-4.929-.7-4.929-4.929-2.816,1.408Z" transform="translate(-628.232 -194.468)"/>
      <path id="路径_10998" data-name="路径 10998" class="cls-1" d="M1060.593,214.429l-1.408-.7-.7-3.52-2.816-2.816-5.633,3.52-3.52-1.408-.7.7-1.408-2.112.7-4.929h-3.52l-4.225-4.225.7-5.633-3.521-3.52v-7.041l-2.816.7-.7,2.816-2.112.7-2.112-4.225-4.929,2.816-2.816-2.112,1.408-3.52-1.408-3.52L1016.235,175l-7.041,2.112-.7,4.929-4.929,2.816,2.112,2.816,2.816.7.7,2.112-2.816,2.816,1.408,2.112-.7,2.112-2.112,1.408-1.408,4.929-4.224,4.225,2.112,8.449-.7,9.153,2.112,1.408v2.816l-1.408,1.408-.7,3.52,3.52,4.225-2.816.7-2.112,2.112h-2.112l1.408,3.52-.7,2.816,1.408,5.633,4.929,4.929-1.408.7.7,1.408-2.816,2.112.7,3.52-1.408,4.225-2.112.7v2.816l-1.408,2.816-1.408-.7-.7,3.52L993,281.317l.7,2.112,4.224,2.816,2.816,4.929,2.112-.7,4.224,1.408.7,2.112,2.112-2.112.7,2.816.7-.7,2.816,4.225,4.224-.7.7,2.816h2.112l5.633-5.633,3.52.7,2.816-1.408-.7-4.929,1.408.7,3.521-2.112,4.929,1.408,1.408,2.112h2.816l-.7-3.52,1.408-4.929-3.52-2.816-3.521-4.929-.7.7-1.408-1.408,3.521-1.408-1.408-2.816,1.408-.7v-2.112l2.112-1.408-1.408-2.816,1.408-1.408-2.112-1.408-1.408-2.816,1.408-.7v-1.408l-3.521-.7-2.816,2.816-4.929-5.633,1.408-1.408v-2.816l6.337-4.929-2.112-3.52,4.929-3.52v-4.929l2.817-2.112-.7-1.408,1.408-2.112V227.1l4.929-3.52-.7-.7,1.408-2.112.7,2.112.7-.7,1.408-4.225,1.408,1.408,2.112-3.52h2.816Z" transform="translate(-685.91 -159.51)"/>
      <path id="路径_10999" data-name="路径 10999" class="cls-1" d="M588.98,564.317l.7-2.112L592.5,560.8l.7-3.52,2.816-2.816-.7-1.408,2.112-4.929,2.112-2.816,3.52-.7,2.112-4.224-.7-1.408,5.633-2.816-1.408-7.745-2.112.7L605.174,527l-2.816-1.408.7-.7-2.112-.7-1.408-2.816-.7.7-.7-2.816,1.408-2.816,4.225.7,2.816-1.408,2.816.7,2.112-1.408,2.112-2.816.7-4.929h1.408l.7-2.816,4.929-2.816-6.337-6.337h-1.408l2.112-2.816-3.52-7.041h-1.408l-2.816-3.52h-1.408l-.7,2.112-1.408-.7-2.112,1.408h-2.112l-2.112-2.112-2.112,1.408-2.112-2.816H592.5V477.01l-2.112,1.408V475.6h-3.52l1.408-3.52-2.112-.7,4.225-4.224v1.408l3.52-2.112,2.112-3.52-.7-2.112-2.816.7-.7-2.112h-7.041l-.7-1.408-2.112,3.521-2.112-1.408-6.337,4.929-2.112,6.337,2.816,1.408.7,6.337-6.337,5.633.7,1.408-7.745,9.153-1.408,4.929.7.7L558,505.174v2.112l2.816.7.7-1.408.7,1.408V510.1l-2.816,2.816v4.225l2.816,2.816-2.112,1.408,1.408,4.224,3.52-.7,3.52,2.112,6.337-3.521h4.929l4.929-2.112v3.52l-2.112,4.929,2.112,1.408-2.112,5.633L575.6,548.123v2.816l2.112.7.7-1.408,1.408,5.633,2.816,2.816h1.408l2.112,5.633Z" transform="translate(-558 -242.693)"/>
      <path id="路径_11000" data-name="路径 11000" class="cls-1" d="M853.839,202.286l-3.52-3.52,2.816-3.52v-1.408h-2.112v-1.408h1.408l1.408-4.225h1.408l5.633-7.041,1.408,1.408,2.816-2.112,6.337-8.449,1.408-5.633-.7-2.112-2.112-1.408-2.816,2.112-.7-4.929-2.112,1.408-3.52-5.633L851.727,153l-6.337,1.408-2.112,4.929L841.87,170.6l-7.041.7-19.714,11.97-2.816-3.52-2.112-.7-6.337.7-13.378,9.153-4.225,1.408-9.153-3.52-7.041-4.225-4.929-4.929-3.52-1.408-14.082,1.408-.7,2.112-2.112.7-1.408,4.929.7,2.112L733.44,198.062l-.7-.7-4.225,1.408-1.408,2.112-2.112-1.408v-2.816h-9.857l-2.816-2.816-1.408.7v1.408l2.816,1.408-1.408,4.225.7.7-1.408.7h4.929l-1.408,1.408-.7,3.52.7,4.225-6.337-1.408,1.408-2.816-1.408-1.408-2.816,1.408h-2.112l-2.816-2.112-2.112.7-.7,1.408-1.408-.7-.7,3.52h2.112l-2.816,2.816-1.408-.7v-1.408l-2.112.7v-2.112l-3.52,5.633,1.408.7.7,2.816,2.816-1.408-.7-2.112,1.408-1.408h1.408l-.7,1.408,1.408,1.408-1.408,1.408V221.3h-1.408l-2.112,2.816h-1.408l-.7-1.408-4.929,2.816-2.816-.7-2.112,2.112h-2.112v-2.112l-1.408-1.408-4.224.7-4.929,1.408-2.816,2.816-6.337,2.816H652.47l-2.112-1.408.7-.7-9.153,2.112-3.52-4.225-4.225,1.408v6.337l-1.408,2.816.7,2.816h-2.816l-1.408,1.408-5.633,1.408-7.745.7v2.112l-2.112,1.408v2.112l-4.929,2.112-.7,2.816-2.112.7v11.97l2.112,4.225,2.816-1.408V272.7l2.112,3.52.7-1.408h2.112l.7,2.112-1.408,1.408,2.112,4.225,4.224-1.408.7,1.408H623.6l.7,2.816-1.408,1.408,1.408,2.112.7-2.112,4.929-4.225.7,2.816,2.112-.7,2.816,5.633,7.745,5.633.7-1.408h4.929l3.52,2.112-.7-3.52,2.112-2.816h3.52l2.816-1.408,2.816.7v2.816l3.52,4.225,10.561.7,2.112-2.816,4.224-1.408v-4.225l2.112.7.7,2.112,3.52-3.52,1.408.7,2.112-3.52-.7-5.633,4.224-2.112-.7-4.929,2.112-2.112-.7-2.112,2.112-2.112-.7-.7,5.633-2.112.7-2.112,15.49-6.337,2.816.7,5.633-1.408,9.153,4.225h2.816l-.7,2.112,3.52,2.112v1.408l3.52-1.408,4.929,4.929,4.929.7v1.408l2.112,1.408,3.52-1.408-2.112,1.408,4.929,2.112.7-1.408,1.408.7,2.112,3.52,3.52-.7,1.408-1.408v-5.633l4.224-1.408,2.112-4.225,2.816-2.112v-3.52l1.408-2.112.7.7,3.52-1.408.7,1.408,1.408-2.112,1.408,2.112,4.224-2.816h9.857l-2.816,3.52,2.816,3.52L813,262.134v3.52l2.816-.7V254.389l2.112-.7,7.745,6.337,2.112-.7,4.929-6.337,1.408-4.225h7.041l9.153-7.745L845.39,238.9l-4.929-9.857,2.112-2.816-4.225-6.337,2.112-3.52-1.408-2.112.7-6.337-2.816-2.112V204.4l.7-2.112h2.112l7.041,3.52,2.816-1.408,1.408-2.112,2.112.7Zm1.408-9.857v0Zm.7,0-.7.7,1.408-.7Z" transform="translate(-572.204 -153)"/>
      <path id="路径_11001" data-name="路径 11001" class="cls-1" d="M678.521,495.1l1.408,4.225,4.225-.7,2.816,1.408v1.408l1.408.7,3.52-5.633,4.929-1.408.7.7,4.225-3.52,5.633,4.225,2.816-.7.7-2.112h2.816l4.929-4.224-.7-.7,1.408-1.408,2.112,2.112h1.408l.7-5.633,2.816-1.408v-1.408l2.816,3.52,3.52-4.225,1.408,1.408v2.112l2.112-2.816,11.97-4.225,4.929-5.633.7-2.816h2.816l1.408-1.408-6.337.7-4.224-1.408-2.112,1.408v-1.408l-1.408.7-1.408-1.408-1.408,1.408-7.041-2.112-2.112-7.041,2.112-1.408-1.408-.7,3.52-7.041-1.408-2.112-4.225-1.408-3.52,2.112-1.408-1.408-4.929.7-.7-2.112h-2.112l-1.408,2.816-3.52,2.112.7,2.112-.7-1.408-2.112,1.408-.7-2.112h-4.929l-.7,1.408h-1.408l-2.112-2.816.7-4.225-5.633-.7-2.112,1.408L691.194,443l-2.816,2.112-4.225.7-2.112,2.112,3.52,6.337-.7,1.408h0l-2.816,2.816h-3.52l-1.408,1.408v2.112l-2.112.7v4.929l2.112,4.225,3.521.7,1.408-2.816,1.408,1.408-2.112,6.337.7.7.7-1.408.7,5.633-4.929,9.857.7,2.112Z" transform="translate(-592.394 -238.331)"/>
      <path id="路径_11002" data-name="路径 11002" class="cls-1" d="M1027.3,438.113h-1.408l2.816-8.449v-4.929l-2.112-4.224-7.041-2.816-7.745-1.408-.7-1.408,1.408-2.816-.7-2.112,2.112-2.112v-1.408l-1.408-3.52H1010.4l-.7-3.52h2.112l1.408-2.816,2.112-.7.7-4.225-1.408-1.408,2.112-4.929-1.408-9.153-1.408-.7-2.112-5.633L1006.878,367l-.7,3.52-6.337,2.816-1.408-1.408h-2.112l-2.816-2.816h-2.112v5.633l-4.225,5.633-2.816-4.225-5.633,1.408-.7,2.112-2.112-.7,1.408,4.929-2.816,4.929,1.408,2.816-4.929.7-2.816,2.112-.7,2.112,2.816,4.225-1.408,4.225-.7.7-6.337-1.408L959,409.245l3.52,1.408v2.112h4.225l2.816,1.408-1.408,2.816,1.408,4.225,2.816-.7,4.929,3.52,2.112-2.816,1.408.7v4.929l2.816-.7,2.112,4.929,4.929,3.52v2.816l-2.816,4.225,1.408,4.929,1.408.7,3.521-4.929,2.112,1.408.7-2.816,2.816,1.408,2.112-.7,2.816,2.112v-1.408h2.112l4.929,4.929V444.45h2.112l1.408-2.112,2.112,1.408-.7,2.112h2.112l.7-2.112,6.337-3.52Z" transform="translate(-675.908 -215.953)"/>
      <path id="路径_11003" data-name="路径 11003" class="cls-1" d="M610.857,701.287l.7,8.449-5.633,5.633-.7,5.633L601,725.93l1.408,7.041,2.816,4.929,2.112,1.408-.7,2.112,1.408,1.408-.7,3.52h-1.408l-2.112,2.816.7,2.816-1.408,1.408.7,1.408h4.929l-1.408,2.816.7,1.408,2.112,1.408h2.816l-2.112,1.408,2.816,2.112-2.112,2.112,2.112,2.112-2.112.7-1.408,2.112.7,1.408,1.408,1.408,2.112-2.816,2.112.7,1.408-2.112,5.633-2.112h2.816l1.408,2.112,7.041-.7.7,1.408,2.112-4.929,5.633,2.112,4.225-2.816,2.112-4.225,2.816,1.408,2.816-1.408-.7-1.408,2.816-1.408,4.225,2.112-.7.7h2.112v2.816h1.408l2.112,3.52,2.112-.7L670,767.471h2.816l1.408,3.52,2.112.7.7,3.52h-1.408v1.408l-.7-.7-2.816,1.408v2.112l-1.408.7v1.408l4.929,2.112v2.816L669.3,789.3l-2.112,2.816-7.745-.7-2.112,5.633h-1.408l-1.408,2.112-4.225.7v1.408l-5.633,2.816.7,3.521h-1.408l1.408,1.408v2.112l-5.633,7.041-.7,6.337-3.52,1.408-2.112,3.52-9.153.7,2.112,3.52h-1.408l9.153,2.112,2.816,6.337,2.816-1.408.7.7v-1.408l4.225,2.816-.7,2.816,1.408.7v2.816h1.408l.7,1.408,9.857-7.041.7,1.408,4.225.7,2.816-4.225,1.408.7L669.3,840.7l1.408,4.929,2.112.7,2.816-3.521-.7-4.929h4.929l3.521,2.112,2.112-1.408,1.408.7-.7,1.408,1.408,2.112,2.112-2.112,2.112-8.449,3.52,1.408,2.112-2.112,4.225.7,2.816-4.225,2.816,1.408.7,2.112,2.112,1.408.7-2.112,4.224-1.408,2.112.7-.7-2.112,5.633-2.112.7.7,2.112-2.816,2.112-.7,4.929,2.816,1.408-4.225h1.408l2.112-2.112,4.929,2.816,5.633,5.633-.7.7,2.816,2.112,2.112,7.041,2.816-1.408,2.112.7,4.929,3.52v3.521l5.633.7,3.52-2.816h5.633l-5.633-6.337v-2.816l-2.112-.7,2.816-.7,1.408-2.112-2.816-.7-2.112-3.52,2.112-3.521-1.408-2.112,1.408-4.224h1.408l-.7-2.112H772.8l-.7-1.408,2.112-3.52,2.112.7,1.408,2.816,4.225-.7-2.112-2.112-.7-2.112,1.408-1.408-2.112-2.112v-1.408l.7-.7,3.52,2.112v-1.408l-1.408-2.112h-2.112l-.7-2.816h1.408l2.112-2.112.7.7.7-1.408-1.408-3.52-2.816-.7.7-1.408-1.408-.7,1.408-2.816-.7-1.408h-2.112v-5.633h2.112l2.112-2.112h2.816l1.408-6.337,3.52.7,1.408-1.408.7-2.112-.7-2.112h-1.408l1.408-1.408v-4.929l1.408-.7v-5.633H790.4v-2.112l2.816-2.112V744.94l2.816-2.112L793.92,738.6v-2.112l1.408-1.408.7.7-.7-6.337.7.7v-1.408h3.521v-2.112l1.408-.7.7-2.816,3.52-.7v1.408L806.594,721l-4.225-4.225-.7-3.52,5.633-4.224,8.449-1.408,4.225-4.225,3.52-.7-.7-4.225,2.112-2.816h1.408v-1.408l2.112-2.112,6.337-4.929-2.112-6.337-2.816,2.112-4.224-1.408.7-4.225-.7.7-.7-3.52,1.408-3.52,2.112-1.408-.7-.7,2.112-1.408v-1.408l4.929-3.52,2.112-4.929,4.225,2.112-.7,2.112,4.224-.7.7-6.337,1.408-.7,1.408-3.52-4.224-.7.7-.7-1.408-.7,1.408-.7-3.52-4.225h-5.633v-2.112l-4.225-3.521-2.112,4.225-4.929,2.112.7,1.408-1.408,2.112-2.112-.7-3.52,1.408-2.816-3.52-3.52-1.408,2.816-2.112-.7-3.521-2.112-1.408,3.52-2.816v-1.408l-4.225.7-.7-1.408H808l-.7-2.816-4.225-2.112-.7.7-1.408-2.112,2.816-7.745-1.408-2.112,3.52-7.041-1.408-.7-.7-3.52,3.521-8.449v-2.816h-3.521l-2.816-9.153-.7.7L798.849,583h-2.816l-4.929,2.816-.7,7.041-5.633,7.745-3.52,2.112-3.52,4.225-2.816.7-.7,4.225H772.8l-2.112,5.633-7.041-4.929v1.408l-2.112,1.408.7,4.225-1.408.7v1.408h4.224l.7,1.408v3.52l-2.816,1.408,1.408.7-2.816,2.816v1.408l-1.408.7-4.929-2.112-5.633,2.112-1.408-1.408-.7-3.52-4.929,2.112h-1.408l-.7-1.408-2.112.7-1.408,2.112-.7-.7-3.52,1.408-1.408-2.112h-1.408l-3.521,1.408.7,2.816-3.52,2.816-2.816,4.225-1.408,2.816,1.408.7-1.408,1.408-2.112-1.408h-2.816l-6.337,3.52-5.633,9.857.7,2.816-1.408.7,4.224,3.52V668.9l2.112,2.816-4.225,5.633v1.408l4.929,2.816-2.112,2.816-4.929-2.112v-1.408l-.7.7-2.112-2.816h-4.225l-3.52-1.408-3.521,2.816-1.408-1.408-3.52,1.408-3.521-.7-3.52.7-2.112,2.112-5.633-3.52-.7.7-.7-1.408-2.816.7.7-2.112-1.408-1.408h-2.112l-2.816,2.112h-2.112l-1.408,4.225-2.112,2.112-2.816.7.7,2.816-2.816,3.52v-2.112l-2.112-1.408h-2.816l-8.449,8.449-4.929,1.408-2.816-1.408-2.816.7-4.929,3.52h-6.337Z" transform="translate(-570.724 -279.031)"/>
      <path id="路径_11004" data-name="路径 11004" class="cls-1" d="M631.133,503.429l-4.929,2.816-.7,2.816h-1.408l-.7,4.929-2.112,2.816-2.112,1.408-2.816-.7-2.816,1.408H608.6v4.929l.7-.7,1.408,2.816,2.112.7-.7.7,2.816,1.408,1.408,2.112,2.112-.7,1.408,7.745-5.633,2.816.7,1.408-2.112,4.224-3.521.7-2.112,2.816-2.112,4.929.7.7-3.521,4.929v2.112l-2.816,1.408V567.5l-2.112,2.112v2.112l-1.408.7v4.225h-1.408L591,582.287l2.112,7.041v7.041l.7,1.408,1.408-.7v2.112l2.112,2.112h8.449l2.112,2.816,7.745,1.408-3.521,9.857,2.816-.7-1.408,7.745h-1.408l-3.52,3.52,1.408,3.521-2.112,4.224.7,2.816-4.929,2.816.7,1.408-3.52,4.225v2.112l1.408,1.408,4.929-3.52,1.408.7.7-1.408v1.408l1.408-.7.7,2.112,2.816-.7,4.225-3.52,3.52-.7.7,1.408,2.816-.7,1.408,2.816-1.408.7,2.112,2.112-4.929,2.816-7.041,2.112v3.52l-5.633-1.408-1.408,4.929-2.112,1.408v1.408l2.112,1.408-.7,1.408,1.408-1.408h6.337l4.224-2.112.7-1.408,2.816-.7,2.816,1.408,6.337-2.112,2.112-3.52h1.408l3.52-4.225,4.929.7v2.816l2.816-3.52-.7-2.816,2.816-.7,3.521-4.225v-1.408l4.929-2.816H660l1.408,1.408-.7,2.112,2.816-.7.7,1.408.7-.7,5.633,3.521,1.408-.7v-1.408l3.52.7.7-1.408,3.52.7,3.52-1.408,1.408,1.408,3.52-2.816,2.816,1.408h4.929l2.112,2.816.7-.7v1.408l4.929,2.112,2.112-2.816-4.929-2.816v-1.408l4.224-5.633-2.112-2.112v-3.52l-4.225-3.52,1.408-.7-.7-2.816,1.408-3.521,4.224-6.337,6.337-3.521h2.816l2.112,1.408,1.408-1.408-1.408-.7,1.408-2.816,2.816-4.225,3.52-2.816-.7-2.816,3.521-1.408H728.3l1.408,2.112,3.52-1.408.7.7,3.52-2.816,2.112,1.408,4.929-2.112.7,3.52,1.408,1.408,5.633-2.112,6.337,1.408v-1.408l2.816-2.816-1.408-.7,2.816-1.408-.7-4.929-1.408.7-2.816-2.112,1.408-.7-.7-4.225,2.112-1.408v-1.408l7.041,4.929,2.112-5.633h1.408l.7-4.225,2.816-.7,3.521-4.225,2.816-1.408-2.112-2.112-1.408.7-2.816-2.816-.7-4.929-2.816-2.816-.7-2.816-2.112-.7-7.041,1.408-4.929-7.041v-2.112h-2.112l-.7-5.633,5.633-2.816-1.408-6.337,2.112-3.52-.7-2.816,2.112-1.408.7-2.816-.7-1.408-4.224.7-3.521-2.112v-1.408l-3.52-4.225,1.408-1.408v-3.52l4.225-7.041,5.633-5.633,1.408-6.337-2.816-1.408-2.112-4.929-5.633-.7-2.112-1.408-1.408-2.816-1.408.7-4.225-3.52,2.112-4.929-.7-.7-4.224-.7-2.112,3.52-.7-1.408h-1.408l.7-2.112-1.408-.7v2.112L733.93,464.7l-1.408.7.7,3.521-2.112,2.112,2.112,1.408L729,474.561l-.7,2.816-4.929,5.633-9.153,2.816-4.929,4.225v-2.112l-1.408-1.408-3.52,4.224-2.816-3.52v1.408l-2.816,1.408-.7,5.633h-1.408l-2.112-2.112-2.112,3.52-2.816.7-.7,2.112h-2.816l-.7,2.112-2.816.7L676.9,498.5l-4.224,3.52-.7-.7-4.929,1.408-3.52,5.633-1.408-.7v-1.408l-2.816-1.408-4.224.7-2.112-4.929-4.929,4.929-1.408-1.408-2.816,2.112h-4.929l-1.408-1.408-1.408.7-2.112-2.112Z" transform="translate(-567.765 -244.309)"/>
      <path id="路径_11005" data-name="路径 11005" class="cls-1" d="M655.735,451.9v-2.816l4.929-9.857v-3.52l-.7-1.408h-1.408l2.112-3.52V427.96l-1.408-1.408-1.408,2.816-3.52-.7-2.112-4.225v-4.929l2.816-1.408-.7-1.408,1.408-1.408h2.816l4.929-2.816h-1.408l.7-1.408-3.52-6.337,2.112-2.112,4.224-.7.7-1.408,2.112-.7,2.816,1.408,2.112-1.408h5.633l-.7,6.337,2.112,1.408h1.408l.7-1.408h4.929l.7,2.112,2.112-1.408.7,1.408-.7-2.112,3.52-2.112,1.408-2.816h2.112l.7,2.112,2.112-.7,4.224,1.408,3.521-2.112,4.224,1.408,1.408,2.112-1.408,1.408v2.816l-1.408.7-.7,2.112,1.408.7-2.112,1.408V416.7l1.408,4.225,4.225,2.112,3.52.7,1.408-1.408,1.408,1.408,1.408-.7v1.408l2.112-1.408,7.041,1.408,3.52-.7-2.112-2.112,2.112-2.112-.7-3.52,1.408-.7,1.408,1.408v-2.112l1.408.7-.7,2.112h1.408v1.408l2.112-1.408-.7-.7,1.408-1.408,4.225.7.7.7-2.112,2.816v2.112l4.224,3.52,1.408-.7,1.408,2.816,2.112,1.408,5.633.7,2.112,4.929,2.816,1.408v2.816l2.816-1.408,6.337,1.408,1.408-2.112,1.408-10.561h2.112l2.112-2.816,2.816-1.408,7.745-1.408,4.929-4.225.7-2.816,1.408-.7,1.408-2.816v-3.52h1.408v-2.816l1.408-.7-1.408-2.112,1.408-2.816-6.337-2.112v-3.52l2.816-5.633-3.52-5.633H787.4l-.7,1.408-2.112-.7.7-.7-2.112-2.816-4.929,3.52-2.816-9.857-2.816-2.112h-1.408v2.112l-2.112,2.112-2.112-.7-2.816,1.408-3.521-2.112-1.408.7,2.112.7-4.224,2.816-2.112-1.408,2.816-2.816-.7-2.112-2.816-1.408v-1.408l-3.52,2.816-.7-.7-.7,1.408-2.112-.7v-1.408h1.408l-.7-7.745,2.112-1.408-.7-2.112h1.408l-1.408-4.225,2.112-1.408-.7-2.112-2.112,1.408-2.112-.7V348.4l1.408-1.408v-9.153l1.408-2.112-2.816-1.408-4.929.7v1.408l-3.52-4.225,4.224-3.52.7-4.929,1.408,1.408,2.112-3.52-2.112-6.337-4.225-6.337,1.408-.7v-2.816l-2.112-.7-1.408-1.408.7-1.408-2.112-1.408-.7.7-7.041-3.52-4.225-.7-3.52,1.408-2.816-.7-6.337,2.112-7.041,4.224h-2.112l-.7,2.112-5.633,2.112.7.7-2.112,2.112.7,2.112-2.112,2.112.7,4.929-4.224,2.112.7,5.633-2.112,3.52-1.408-.7-.7,2.112-2.816,1.408-2.112-2.816-1.408,1.408.7,2.816-4.224,1.408-2.112,2.816-10.561-.7-2.816-2.816-.7-4.225-1.408-.7-7.745,1.408-2.112,2.816.7,2.816-3.521-1.408h-4.929l-.7,1.408-4.225-2.816L632.5,331.5l-1.408-4.225-2.112.7-1.408-2.816-4.929,4.225-.7,4.929-2.816,5.633.7,8.449-4.225,4.929,1.408,2.112,3.521.7,1.408,2.112,5.633,2.816-2.112,4.225-2.112.7,2.112.7,2.816,3.52h2.816l-.7,2.816,1.408,1.408-1.408,1.408.7,1.408-3.52,3.52h-1.408l-1.408,4.225h-3.52v1.408l-3.52,3.52v2.112l-4.929,1.408-2.816-.7-2.816,1.408,2.112,6.337,1.408.7,1.408,3.52-1.408,2.816-6.337-.7.7,2.112H601.52l-1.408,2.112.7,1.408,2.112-.7,1.408,2.112,2.816-.7.7,3.52-4.929,4.225-.7-1.408L598,423.736l2.112.7-.7,2.816-.7-.7,2.112,2.112,1.408-.7v2.816l2.112-1.408.7.7-.7,3.52h1.408V435l2.112,1.408L609.97,435l2.112,2.112,4.225-1.408,1.408.7V435l2.112-.7,2.816,3.52h1.408l3.52,7.041-2.112,2.816h1.408l5.633,6.337h3.52l2.112,2.112,1.408-.7,1.408,1.408h4.929l2.816-2.112,1.408,1.408,4.929-4.929Z" transform="translate(-569.836 -195.312)"/>
      <path id="路径_11006" data-name="路径 11006" class="cls-1" d="M847.98,543.012l6.337-8.449.7-7.041,4.929-2.816h2.816l1.408,1.408.7-.7,2.816,9.153h3.52v2.816l-3.52,7.745.7,4.224,1.408.7-3.52,7.041,1.408,1.408-2.816,8.449,1.408,2.112.7-.7.7,1.408,3.52.7.7,2.816h2.112l.7,1.408,4.225-.7V575.4l-3.52,2.816,2.112,1.408.7,2.112v1.408l-2.816,2.112,3.52,1.408,2.816,3.52,3.52-1.408,2.112.7,1.408-2.112-.7-1.408,5.633-2.816,1.408-3.52,4.224,3.52v2.112l4.929-2.816,1.408-7.041-2.112-.7-3.52-5.633,4.224-6.337v-8.449l4.225-3.52,4.929-7.745,4.224-2.816,4.929.7,2.112-2.816h6.337l4.224-2.112H938.1l.7,1.408,2.816-4.225,7.745-4.225-.7-4.929,4.929-5.633H955l3.52-3.521v-2.112l1.408-.7-.7-3.52h-2.112l.7-1.408-4.225-2.112v-4.225l2.816-2.816-.7-4.929-1.408-.7v-7.745l-2.112-2.816-2.816,2.112-2.816-1.408-1.408-7.041,3.521-4.225h1.408l2.816,4.225,1.408-.7.7-1.408-1.408-2.816L955,468.378l7.745,1.408.7-2.816,2.112-1.408,1.408.7v-1.408h1.408l1.408-2.112v-2.112l1.408.7,1.408-1.408-.7-5.633-7.041-6.337h-2.112v1.408l-2.816-2.112-2.112.7-2.112-1.408-1.408.7v2.112l-2.112-1.408-3.521,4.929-1.408-.7-1.408-4.225,1.408-3.52,1.408-.7v-3.52l-4.929-3.52-2.112-4.929-2.816.7v-4.929l-1.408-.7-1.408,2.816-5.633-3.52-2.816.7-1.408-2.816,1.408-4.225-2.816-1.408H920.5v-2.112l-3.52-1.408,2.816-4.929,6.337,1.408,2.112-3.52-4.224-8.449-3.521-4.225-2.816,2.816H906.419l-.7-2.112,2.816-1.408-1.408-1.408v-4.225L904.307,386l.7,9.153-3.521,2.816-2.112,3.52.7,2.112-2.816,3.52-.7,4.224h-4.929l-3.521,1.408-.7,2.816L886,413.459l-3.521-1.408-.7,2.816-.7-.7-4.929,2.112-1.408,4.225-2.112-2.112-3.521-.7-.7-3.52-4.224-1.408-2.816,5.633V421.2l2.112,2.112,4.225.7-1.408,2.816,1.408,2.112-1.408.7v2.816h-1.408v3.52l-2.816,3.52-.7,2.816-4.929,4.225-7.745,1.408-4.929,4.225h-2.112l-2.112,12.674h-2.816L834.6,463.45l-4.929,1.408-1.408,3.52-5.633,5.633-4.225,6.337v4.225L817,485.981l3.521,5.633,3.52,2.112,4.225-.7.7,1.408-.7,2.816-2.112,1.408.7,2.816-2.112,3.521,1.408,6.337-5.633,2.816.7,5.633h2.112v2.112l4.929,7.041,7.041-1.408,2.112.7.7,2.816,2.112,1.408,1.408,6.337,2.112.7.7,2.112,1.408-.7,2.112,1.408Z" transform="translate(-634.01 -221.405)"/>
      <path id="路径_11007" data-name="路径 11007" class="cls-1" d="M1009.838,391.655h2.112l2.816-2.112,1.408-2.816h1.408l3.521,4.929.7-1.408.7.7,1.408,7.745,5.633,2.112,1.408,2.112,2.112-.7,2.112,2.816h1.408l4.225-4.929-.7-4.224,2.816-2.816,3.52-1.408v-1.408l1.408,1.408,4.224-1.408,2.816-2.816,2.112,1.408,2.816-2.816h2.816l1.408,1.408,1.408-.7,2.817,2.112v-3.52l1.408-2.112h2.112l-.7-2.816,2.816-2.112,4.225,1.408,2.112-.7,1.408-2.112,1.408.7,1.408-1.408,7.745-.7v-5.633l2.112-2.112-.7-2.112-2.816-.7-2.112-2.112,2.816-3.52,9.857-4.929,1.408-2.112-1.408-7.041-2.112-1.408,2.112-2.816,1.408-5.633-5.633-1.408,2.816-1.408-2.816-4.929v-4.929l2.112-2.112-1.408-2.112,1.408-.7v-2.112l-2.112-1.408.7-.7-2.816-.7,1.408-1.408-2.816-9.153-7.041-3.52-2.112-8.449-1.408-.7-4.929,2.112-.7-1.408h1.408l1.408-2.112-2.112-1.408-1.408-2.816-4.929-.7-.7-2.816-1.408,2.112v-1.408l-.7.7-2.816-4.225.7-3.52-3.521-2.816,1.408-1.408-1.408-1.408.7-2.112-1.408-2.112.7-4.225,2.816-.7,1.408-2.112-1.408-4.929h7.745l2.112-2.112-1.408-.7,4.225-3.52v-3.52l-2.816-2.816-3.521-1.408v-3.52l-1.408-2.112,2.112-1.408-.7-1.408-3.52-2.816-4.225-1.408-.7-2.816-4.929-.7-.7,1.408-2.112-.7-2.112,2.112h-5.633l-5.633-2.816-3.52,2.112-2.112-.7-1.408,1.408h-2.816l-2.816,2.112-1.408-.7-2.112,3.52-1.408-1.408-2.112,4.929-.7-2.112-1.408,3.52H1019.7l-2.816,2.816v-1.408l-1.408.7.7,2.112-2.816,2.112V245.2l-4.929,4.225,2.112,3.52-6.337,4.929v2.816L1002.8,262.1l4.928,5.633,2.817-2.816,3.52.7v1.408l-1.408.7,1.408,2.816,2.112,1.408-1.408,1.408,1.408,2.816-2.112,1.408V279.7l-1.408.7,1.408,2.816-3.52,1.408,1.408,1.408.7-.7,3.52,4.929,3.521,2.112-1.408,5.633.7,3.52h-2.816l-1.408-2.112-4.928-1.408-3.521,2.112-1.408-.7.7,4.929-4.224,1.408-2.112-.7-5.633,5.633h-2.112l-.7-2.816-3.521.7-2.112-1.408v-1.408l-1.408-1.408-.7.7-.7-2.816-2.112,2.112-.7-2.112-4.224-1.408-2.112.7-2.816-4.929-2.816-1.408-2.112-3.52,1.408-1.408.7-3.52,1.408.7,1.408-5.633,2.112-.7,1.408-4.225-.7-3.52,3.52-4.225-4.928-4.929-1.408-5.633.7-2.816-1.408-3.52,2.112.7,1.408-2.816,3.52-.7-3.52-4.225.7-3.52,1.408-.7v-3.52l-2.112-1.408.7-9.153-2.112-8.449,4.224-4.225L977.45,210l-9.857,1.408-.7,2.112-2.816.7-6.337,4.225-2.112,3.52-2.816,1.408-3.521-.7.7-2.112-1.408-.7h-1.408l-3.52,3.52v-2.816l-2.816-1.408h-2.112l-4.929,3.52-2.816-.7-1.408-2.112-4.929-.7-.7,3.52,2.816,2.112-.7,6.337,1.408,1.408-2.112,3.52,4.224,7.041-2.112,2.816,4.929,9.857,4.929,2.112-9.153,7.745h-7.041l-5.633,10.561v10.561l-2.112.7-3.52,7.041L903.52,295.9l-1.408-.7L900,296.6l.7,5.633h2.816l4.225,3.52v2.816l2.816-1.408.7,1.408,2.112-.7-.7.7,1.408,1.408,4.928,2.816v7.041l4.929,8.449,7.745,8.449v4.224l1.408,1.408-1.408-.7-1.408,2.112.7,2.112,3.521-.7,4.224,1.408,4.929-1.408,1.408-2.112,4.928,7.041.7-2.112,2.816-2.112,4.929-.7-1.408-2.816,2.816-4.929-1.408-4.929,1.408.7,1.408-2.112,5.633-1.408,2.816,4.225,4.225-5.633v-5.633l8.449,4.225,6.337-2.816.7-3.52,3.521,1.408,3.52,7.041,1.408.7,1.408,9.153-2.112,4.929,1.408,1.408-.7,4.225-2.112.7-1.408,2.816h-2.112l.7,3.52h2.112l1.408,3.52v1.408l-2.112,2.112.7,2.112-1.408,2.816,3.52,2.112,11.97,3.52,2.112,4.225v4.929l-2.816,8.449Z" transform="translate(-658.205 -169.867)"/>
    </g>
    <text id="九江" class="cls-2" transform="translate(935 263)"><tspan x="-16" y="0">九江</tspan></text>
    <text id="景德镇" class="cls-2" transform="translate(1080 247)"><tspan x="-24" y="0">景德</tspan><tspan class="cls-3" y="0">镇</tspan></text>
    <text id="上饶" class="cls-2" transform="translate(1137 355)"><tspan x="-16" y="0">上</tspan><tspan class="cls-3" y="0">饶</tspan></text>
    <text id="南昌" class="cls-2" transform="translate(960 332)"><tspan x="-16" y="0">南昌</tspan></text>
    <text id="宜春" class="cls-2" transform="translate(853 366)"><tspan x="-16" y="0">宜春</tspan></text>
    <text id="鹰潭" class="cls-4" transform="translate(1059 387)"><tspan x="-16" y="0">鹰</tspan><tspan class="cls-5" y="0">潭</tspan></text>
    <text id="新余" class="cls-2" transform="translate(853 429)"><tspan x="-16" y="0">新余</tspan></text>
    <text id="萍乡" class="cls-2" transform="translate(770 458)"><tspan x="-16" y="0">萍</tspan><tspan class="cls-3" y="0">乡</tspan></text>
    <text id="抚顺" class="cls-4" transform="translate(995 458)"><tspan x="-16" y="0">抚顺</tspan></text>
    <text id="吉安" class="cls-2" transform="translate(855 525)"><tspan x="-16" y="0">吉安</tspan></text>
    <text id="赣州" class="cls-4" transform="translate(903 645)"><tspan x="-16" y="0">赣</tspan><tspan class="cls-5" y="0">州</tspan></text>
    <g id="风电场" transform="translate(976 251)">
      <g class="cls-21" transform="matrix(1, 0, 0, 1, -238.95, -64.47)">
        <path id="路径_11029-6" data-name="路径 11029" class="cls-6" d="M29.853,12.422a.285.285,0,0,0-.138-.193.207.207,0,0,0-.236.013q-2.468,1.469-4.813,3.132c-1.367,1.033-2.277,1.655-2.373,2.262a.4.4,0,0,0,.055.193.481.481,0,0,0,.414.193c1.1-.028,4.773-1.753,7.973-3.519a.231.231,0,0,0,.125-.193.266.266,0,0,0-.083-.221,2.606,2.606,0,0,1-.925-1.668Zm2.69,1.49a1.878,1.878,0,1,0-1.8-1.876A1.878,1.878,0,0,0,32.543,13.912ZM31.357,9.483a.236.236,0,0,0,.234.028,2.631,2.631,0,0,1,1.9,0,.193.193,0,0,0,.1.015.236.236,0,0,0,.138-.043.243.243,0,0,0,.11-.206,56.737,56.737,0,0,0-.345-5.711,16.221,16.221,0,0,0-.331-1.959C33,1.138,33.012.78,32.543.682c-.469.1-.469.456-.621.925a43.663,43.663,0,0,0-.675,7.67.28.28,0,0,0,.11.206Zm9.09,6.07c-1.379-1.021-3.173-2.207-4.841-3.213a.279.279,0,0,0-.236-.015.242.242,0,0,0-.138.193,2.687,2.687,0,0,1-.966,1.643.276.276,0,0,0-.1.221.254.254,0,0,0,.124.206c3.228,1.781,7.035,3.671,8.139,3.7a.447.447,0,0,0,.4-.178.377.377,0,0,0,.055-.193c-.11-.62-1.063-1.282-2.443-2.36ZM32.8,15.166h-.441a.9.9,0,0,0-.883.91L31.039,27.21a.9.9,0,0,0,.883.91h1.324a.9.9,0,0,0,.883-.91l-.44-11.133a.9.9,0,0,0-.883-.91h0Z" transform="translate(216.65 63.79)"/>
      </g>
      <g class="cls-20" transform="matrix(1, 0, 0, 1, -238.95, -64.47)">
        <path id="路径_11030-6" data-name="路径 11030" class="cls-7" d="M524.24,367.072a.158.158,0,0,0-.083-.123.15.15,0,0,0-.152,0q-1.553.93-3.035,1.973c-.855.648-1.435,1.048-1.5,1.435a.224.224,0,0,0,.028.124.317.317,0,0,0,.261.125,20.5,20.5,0,0,0,5.036-2.221.2.2,0,0,0,.083-.124.162.162,0,0,0-.055-.138,1.7,1.7,0,0,1-.579-1.048Zm1.711.938a1.186,1.186,0,1,0-1.186-1.186A1.186,1.186,0,0,0,525.95,368.01Zm-.759-2.8a.147.147,0,0,0,.152.013,1.756,1.756,0,0,1,1.214,0,.076.076,0,0,0,.055.015.257.257,0,0,0,.1-.028.169.169,0,0,0,.07-.138,34.352,34.352,0,0,0-.221-3.614,8.888,8.888,0,0,0-.208-1.241c-.1-.291-.1-.524-.4-.579-.29.068-.29.289-.4.579a27.449,27.449,0,0,0-.427,4.841A.18.18,0,0,0,525.191,365.211Zm5.738,3.835q-1.481-1.087-3.062-2.027a.19.19,0,0,0-.151-.014.158.158,0,0,0-.083.125,1.667,1.667,0,0,1-.607,1.034.131.131,0,0,0-.055.138.133.133,0,0,0,.083.125c2.042,1.117,4.442,2.317,5.131,2.331a.279.279,0,0,0,.248-.11.2.2,0,0,0,.028-.124c-.055-.374-.649-.8-1.532-1.477Zm-4.828-.234h-.276a.57.57,0,0,0-.552.579L525,376.412a.57.57,0,0,0,.552.579h.842a.57.57,0,0,0,.552-.579l-.276-7.021a.57.57,0,0,0-.566-.579Z" transform="translate(-267.12 -285.5)"/>
      </g>
    </g>
    <g id="风电场-2" data-name="风电场" transform="translate(921.805 321.062)">
      <g class="cls-19" transform="matrix(1, 0, 0, 1, -184.75, -134.53)">
        <path id="路径_11029-7" data-name="路径 11029" class="cls-6" d="M29.853,12.422a.285.285,0,0,0-.138-.193.207.207,0,0,0-.236.013q-2.468,1.469-4.813,3.132c-1.367,1.033-2.277,1.655-2.373,2.262a.4.4,0,0,0,.055.193.481.481,0,0,0,.414.193c1.1-.028,4.773-1.753,7.973-3.519a.231.231,0,0,0,.125-.193.266.266,0,0,0-.083-.221,2.606,2.606,0,0,1-.925-1.668Zm2.69,1.49a1.878,1.878,0,1,0-1.8-1.876A1.878,1.878,0,0,0,32.543,13.912ZM31.357,9.483a.236.236,0,0,0,.234.028,2.631,2.631,0,0,1,1.9,0,.193.193,0,0,0,.1.015.236.236,0,0,0,.138-.043.243.243,0,0,0,.11-.206,56.737,56.737,0,0,0-.345-5.711,16.221,16.221,0,0,0-.331-1.959C33,1.138,33.012.78,32.543.682c-.469.1-.469.456-.621.925a43.663,43.663,0,0,0-.675,7.67.28.28,0,0,0,.11.206Zm9.09,6.07c-1.379-1.021-3.173-2.207-4.841-3.213a.279.279,0,0,0-.236-.015.242.242,0,0,0-.138.193,2.687,2.687,0,0,1-.966,1.643.276.276,0,0,0-.1.221.254.254,0,0,0,.124.206c3.228,1.781,7.035,3.671,8.139,3.7a.447.447,0,0,0,.4-.178.377.377,0,0,0,.055-.193c-.11-.62-1.063-1.282-2.443-2.36ZM32.8,15.166h-.441a.9.9,0,0,0-.883.91L31.039,27.21a.9.9,0,0,0,.883.91h1.324a.9.9,0,0,0,.883-.91l-.44-11.133a.9.9,0,0,0-.883-.91h0Z" transform="translate(162.46 133.85)"/>
      </g>
      <g class="cls-18" transform="matrix(1, 0, 0, 1, -184.75, -134.53)">
        <path id="路径_11030-7" data-name="路径 11030" class="cls-7" d="M524.24,367.072a.158.158,0,0,0-.083-.123.15.15,0,0,0-.152,0q-1.553.93-3.035,1.973c-.855.648-1.435,1.048-1.5,1.435a.224.224,0,0,0,.028.124.317.317,0,0,0,.261.125,20.5,20.5,0,0,0,5.036-2.221.2.2,0,0,0,.083-.124.162.162,0,0,0-.055-.138,1.7,1.7,0,0,1-.579-1.048Zm1.711.938a1.186,1.186,0,1,0-1.186-1.186A1.186,1.186,0,0,0,525.95,368.01Zm-.759-2.8a.147.147,0,0,0,.152.013,1.756,1.756,0,0,1,1.214,0,.076.076,0,0,0,.055.015.257.257,0,0,0,.1-.028.169.169,0,0,0,.07-.138,34.352,34.352,0,0,0-.221-3.614,8.888,8.888,0,0,0-.208-1.241c-.1-.291-.1-.524-.4-.579-.29.068-.29.289-.4.579a27.449,27.449,0,0,0-.427,4.841A.18.18,0,0,0,525.191,365.211Zm5.738,3.835q-1.481-1.087-3.062-2.027a.19.19,0,0,0-.151-.014.158.158,0,0,0-.083.125,1.667,1.667,0,0,1-.607,1.034.131.131,0,0,0-.055.138.133.133,0,0,0,.083.125c2.042,1.117,4.442,2.317,5.131,2.331a.279.279,0,0,0,.248-.11.2.2,0,0,0,.028-.124c-.055-.374-.649-.8-1.532-1.477Zm-4.828-.234h-.276a.57.57,0,0,0-.552.579L525,376.412a.57.57,0,0,0,.552.579h.842a.57.57,0,0,0,.552-.579l-.276-7.021a.57.57,0,0,0-.566-.579Z" transform="translate(-321.32 -215.43)"/>
      </g>
    </g>
    <g id="风电场-3" data-name="风电场" transform="translate(887 437.781)">
      <g class="cls-17" transform="matrix(1, 0, 0, 1, -149.95, -251.25)">
        <path id="路径_11029-8" data-name="路径 11029" class="cls-6" d="M29.853,12.422a.285.285,0,0,0-.138-.193.207.207,0,0,0-.236.013q-2.468,1.469-4.813,3.132c-1.367,1.033-2.277,1.655-2.373,2.262a.4.4,0,0,0,.055.193.481.481,0,0,0,.414.193c1.1-.028,4.773-1.753,7.973-3.519a.231.231,0,0,0,.125-.193.266.266,0,0,0-.083-.221,2.606,2.606,0,0,1-.925-1.668Zm2.69,1.49a1.878,1.878,0,1,0-1.8-1.876A1.878,1.878,0,0,0,32.543,13.912ZM31.357,9.483a.236.236,0,0,0,.234.028,2.631,2.631,0,0,1,1.9,0,.193.193,0,0,0,.1.015.236.236,0,0,0,.138-.043.243.243,0,0,0,.11-.206,56.737,56.737,0,0,0-.345-5.711,16.221,16.221,0,0,0-.331-1.959C33,1.138,33.012.78,32.543.682c-.469.1-.469.456-.621.925a43.663,43.663,0,0,0-.675,7.67.28.28,0,0,0,.11.206Zm9.09,6.07c-1.379-1.021-3.173-2.207-4.841-3.213a.279.279,0,0,0-.236-.015.242.242,0,0,0-.138.193,2.687,2.687,0,0,1-.966,1.643.276.276,0,0,0-.1.221.254.254,0,0,0,.124.206c3.228,1.781,7.035,3.671,8.139,3.7a.447.447,0,0,0,.4-.178.377.377,0,0,0,.055-.193c-.11-.62-1.063-1.282-2.443-2.36ZM32.8,15.166h-.441a.9.9,0,0,0-.883.91L31.039,27.21a.9.9,0,0,0,.883.91h1.324a.9.9,0,0,0,.883-.91l-.44-11.133a.9.9,0,0,0-.883-.91h0Z" transform="translate(127.65 250.57)"/>
      </g>
      <g class="cls-16" transform="matrix(1, 0, 0, 1, -149.95, -251.25)">
        <path id="路径_11030-8" data-name="路径 11030" class="cls-7" d="M524.24,367.072a.158.158,0,0,0-.083-.123.15.15,0,0,0-.152,0q-1.553.93-3.035,1.973c-.855.648-1.435,1.048-1.5,1.435a.224.224,0,0,0,.028.124.317.317,0,0,0,.261.125,20.5,20.5,0,0,0,5.036-2.221.2.2,0,0,0,.083-.124.162.162,0,0,0-.055-.138,1.7,1.7,0,0,1-.579-1.048Zm1.711.938a1.186,1.186,0,1,0-1.186-1.186A1.186,1.186,0,0,0,525.95,368.01Zm-.759-2.8a.147.147,0,0,0,.152.013,1.756,1.756,0,0,1,1.214,0,.076.076,0,0,0,.055.015.257.257,0,0,0,.1-.028.169.169,0,0,0,.07-.138,34.352,34.352,0,0,0-.221-3.614,8.888,8.888,0,0,0-.208-1.241c-.1-.291-.1-.524-.4-.579-.29.068-.29.289-.4.579a27.449,27.449,0,0,0-.427,4.841A.18.18,0,0,0,525.191,365.211Zm5.738,3.835q-1.481-1.087-3.062-2.027a.19.19,0,0,0-.151-.014.158.158,0,0,0-.083.125,1.667,1.667,0,0,1-.607,1.034.131.131,0,0,0-.055.138.133.133,0,0,0,.083.125c2.042,1.117,4.442,2.317,5.131,2.331a.279.279,0,0,0,.248-.11.2.2,0,0,0,.028-.124c-.055-.374-.649-.8-1.532-1.477Zm-4.828-.234h-.276a.57.57,0,0,0-.552.579L525,376.412a.57.57,0,0,0,.552.579h.842a.57.57,0,0,0,.552-.579l-.276-7.021a.57.57,0,0,0-.566-.579Z" transform="translate(-356.12 -98.71)"/>
      </g>
    </g>
    <g id="风电场-4" data-name="风电场" transform="translate(857.805 638.5)">
      <g class="cls-15" transform="matrix(1, 0, 0, 1, -120.75, -451.97)">
        <path id="路径_11029-9" data-name="路径 11029" class="cls-6" d="M29.853,12.422a.285.285,0,0,0-.138-.193.207.207,0,0,0-.236.013q-2.468,1.469-4.813,3.132c-1.367,1.033-2.277,1.655-2.373,2.262a.4.4,0,0,0,.055.193.481.481,0,0,0,.414.193c1.1-.028,4.773-1.753,7.973-3.519a.231.231,0,0,0,.125-.193.266.266,0,0,0-.083-.221,2.606,2.606,0,0,1-.925-1.668Zm2.69,1.49a1.878,1.878,0,1,0-1.8-1.876A1.878,1.878,0,0,0,32.543,13.912ZM31.357,9.483a.236.236,0,0,0,.234.028,2.631,2.631,0,0,1,1.9,0,.193.193,0,0,0,.1.015.236.236,0,0,0,.138-.043.243.243,0,0,0,.11-.206,56.737,56.737,0,0,0-.345-5.711,16.221,16.221,0,0,0-.331-1.959C33,1.138,33.012.78,32.543.682c-.469.1-.469.456-.621.925a43.663,43.663,0,0,0-.675,7.67.28.28,0,0,0,.11.206Zm9.09,6.07c-1.379-1.021-3.173-2.207-4.841-3.213a.279.279,0,0,0-.236-.015.242.242,0,0,0-.138.193,2.687,2.687,0,0,1-.966,1.643.276.276,0,0,0-.1.221.254.254,0,0,0,.124.206c3.228,1.781,7.035,3.671,8.139,3.7a.447.447,0,0,0,.4-.178.377.377,0,0,0,.055-.193c-.11-.62-1.063-1.282-2.443-2.36ZM32.8,15.166h-.441a.9.9,0,0,0-.883.91L31.039,27.21a.9.9,0,0,0,.883.91h1.324a.9.9,0,0,0,.883-.91l-.44-11.133a.9.9,0,0,0-.883-.91h0Z" transform="translate(98.46 451.29)"/>
      </g>
      <g class="cls-14" transform="matrix(1, 0, 0, 1, -120.75, -451.97)">
        <path id="路径_11030-9" data-name="路径 11030" class="cls-7" d="M524.24,367.072a.158.158,0,0,0-.083-.123.15.15,0,0,0-.152,0q-1.553.93-3.035,1.973c-.855.648-1.435,1.048-1.5,1.435a.224.224,0,0,0,.028.124.317.317,0,0,0,.261.125,20.5,20.5,0,0,0,5.036-2.221.2.2,0,0,0,.083-.124.162.162,0,0,0-.055-.138,1.7,1.7,0,0,1-.579-1.048Zm1.711.938a1.186,1.186,0,1,0-1.186-1.186A1.186,1.186,0,0,0,525.95,368.01Zm-.759-2.8a.147.147,0,0,0,.152.013,1.756,1.756,0,0,1,1.214,0,.076.076,0,0,0,.055.015.257.257,0,0,0,.1-.028.169.169,0,0,0,.07-.138,34.352,34.352,0,0,0-.221-3.614,8.888,8.888,0,0,0-.208-1.241c-.1-.291-.1-.524-.4-.579-.29.068-.29.289-.4.579a27.449,27.449,0,0,0-.427,4.841A.18.18,0,0,0,525.191,365.211Zm5.738,3.835q-1.481-1.087-3.062-2.027a.19.19,0,0,0-.151-.014.158.158,0,0,0-.083.125,1.667,1.667,0,0,1-.607,1.034.131.131,0,0,0-.055.138.133.133,0,0,0,.083.125c2.042,1.117,4.442,2.317,5.131,2.331a.279.279,0,0,0,.248-.11.2.2,0,0,0,.028-.124c-.055-.374-.649-.8-1.532-1.477Zm-4.828-.234h-.276a.57.57,0,0,0-.552.579L525,376.412a.57.57,0,0,0,.552.579h.842a.57.57,0,0,0,.552-.579l-.276-7.021a.57.57,0,0,0-.566-.579Z" transform="translate(-385.32 102)"/>
      </g>
    </g>
    <g id="风电场-5" data-name="风电场" transform="translate(900.195 454.594)">
      <g class="cls-13" transform="matrix(1, 0, 0, 1, -163.14, -268.06)">
        <path id="路径_11029-10" data-name="路径 11029" class="cls-6" d="M29.853,12.422a.285.285,0,0,0-.138-.193.207.207,0,0,0-.236.013q-2.468,1.469-4.813,3.132c-1.367,1.033-2.277,1.655-2.373,2.262a.4.4,0,0,0,.055.193.481.481,0,0,0,.414.193c1.1-.028,4.773-1.753,7.973-3.519a.231.231,0,0,0,.125-.193.266.266,0,0,0-.083-.221,2.606,2.606,0,0,1-.925-1.668Zm2.69,1.49a1.878,1.878,0,1,0-1.8-1.876A1.878,1.878,0,0,0,32.543,13.912ZM31.357,9.483a.236.236,0,0,0,.234.028,2.631,2.631,0,0,1,1.9,0,.193.193,0,0,0,.1.015.236.236,0,0,0,.138-.043.243.243,0,0,0,.11-.206,56.737,56.737,0,0,0-.345-5.711,16.221,16.221,0,0,0-.331-1.959C33,1.138,33.012.78,32.543.682c-.469.1-.469.456-.621.925a43.663,43.663,0,0,0-.675,7.67.28.28,0,0,0,.11.206Zm9.09,6.07c-1.379-1.021-3.173-2.207-4.841-3.213a.279.279,0,0,0-.236-.015.242.242,0,0,0-.138.193,2.687,2.687,0,0,1-.966,1.643.276.276,0,0,0-.1.221.254.254,0,0,0,.124.206c3.228,1.781,7.035,3.671,8.139,3.7a.447.447,0,0,0,.4-.178.377.377,0,0,0,.055-.193c-.11-.62-1.063-1.282-2.443-2.36ZM32.8,15.166h-.441a.9.9,0,0,0-.883.91L31.039,27.21a.9.9,0,0,0,.883.91h1.324a.9.9,0,0,0,.883-.91l-.44-11.133a.9.9,0,0,0-.883-.91h0Z" transform="translate(140.85 267.38)"/>
      </g>
      <g class="cls-12" transform="matrix(1, 0, 0, 1, -163.14, -268.06)">
        <path id="路径_11030-10" data-name="路径 11030" class="cls-7" d="M524.24,367.072a.158.158,0,0,0-.083-.123.15.15,0,0,0-.152,0q-1.553.93-3.035,1.973c-.855.648-1.435,1.048-1.5,1.435a.224.224,0,0,0,.028.124.317.317,0,0,0,.261.125,20.5,20.5,0,0,0,5.036-2.221.2.2,0,0,0,.083-.124.162.162,0,0,0-.055-.138,1.7,1.7,0,0,1-.579-1.048Zm1.711.938a1.186,1.186,0,1,0-1.186-1.186A1.186,1.186,0,0,0,525.95,368.01Zm-.759-2.8a.147.147,0,0,0,.152.013,1.756,1.756,0,0,1,1.214,0,.076.076,0,0,0,.055.015.257.257,0,0,0,.1-.028.169.169,0,0,0,.07-.138,34.352,34.352,0,0,0-.221-3.614,8.888,8.888,0,0,0-.208-1.241c-.1-.291-.1-.524-.4-.579-.29.068-.29.289-.4.579a27.449,27.449,0,0,0-.427,4.841A.18.18,0,0,0,525.191,365.211Zm5.738,3.835q-1.481-1.087-3.062-2.027a.19.19,0,0,0-.151-.014.158.158,0,0,0-.083.125,1.667,1.667,0,0,1-.607,1.034.131.131,0,0,0-.055.138.133.133,0,0,0,.083.125c2.042,1.117,4.442,2.317,5.131,2.331a.279.279,0,0,0,.248-.11.2.2,0,0,0,.028-.124c-.055-.374-.649-.8-1.532-1.477Zm-4.828-.234h-.276a.57.57,0,0,0-.552.579L525,376.412a.57.57,0,0,0,.552.579h.842a.57.57,0,0,0,.552-.579l-.276-7.021a.57.57,0,0,0-.566-.579Z" transform="translate(-342.93 -81.9)"/>
      </g>
    </g>
    <g id="光伏板" transform="translate(922.298 391)">
      <g class="cls-11" transform="matrix(1, 0, 0, 1, -185.25, -204.47)">
        <path id="路径_11027-3" data-name="路径 11027" class="cls-7" d="M95.992,232.96l.032,2.347h4.282l-.444-2.347Zm9.437,2.347-.936-2.347h-3.87l.539,2.347Zm1.427,3.568-1.205-3.013h-4.377l.682,3.013Zm-4.964,4.79-.777-4.06H96.1l.063,4.06Zm-.9-4.79-.587-3.013H96.04l.048,3.013Zm-10.943-3.568.523-2.347H87.174l-.46.016-.174.4-.777,1.935Zm5.17-2.347h-3.87l-.444,2.347h4.266Zm-.048,2.9H90.79l-.571,3.013H95.1Zm-.063,3.743H90.076l-.777,4.06h5.725Zm-5.186-3.743H85.541l-1.189,3.013h4.885Zm-7.486,7.8h5.725l.92-4.06H84.05Zm26.327,0-1.618-4.06H102.13l.9,4.06ZM98.577,253.737H92.82l1.031-10.071h3.7Z" transform="translate(103.91 -28.17)"/>
      </g>
      <g class="cls-10" transform="matrix(1, 0, 0, 1, -185.25, -204.47)">
        <path id="路径_11028-3" data-name="路径 11028" class="cls-7" d="M75.739,233.33l-4.631-9.912a1.819,1.819,0,0,0-1.554-.7H53.5a1.8,1.8,0,0,0-1.554.7l-4.631,9.912c-.412.888.111,1.665,1.205,1.665H74.5C75.628,234.98,76.151,234.218,75.739,233.33Zm-6.661-.048H48.761l1.348-3.22-.016-.016,2.823-6.661,17.24-.063,2.633,6.265-.016.016,1.554,3.68Z" transform="translate(138.07 -18.25)"/>
      </g>
    </g>
    <g id="光伏板-2" data-name="光伏板" transform="translate(950.298 491.906)">
      <g class="cls-9" transform="matrix(1, 0, 0, 1, -213.25, -305.38)">
        <path id="路径_11027-4" data-name="路径 11027" class="cls-7" d="M95.992,232.96l.032,2.347h4.282l-.444-2.347Zm9.437,2.347-.936-2.347h-3.87l.539,2.347Zm1.427,3.568-1.205-3.013h-4.377l.682,3.013Zm-4.964,4.79-.777-4.06H96.1l.063,4.06Zm-.9-4.79-.587-3.013H96.04l.048,3.013Zm-10.943-3.568.523-2.347H87.174l-.46.016-.174.4-.777,1.935Zm5.17-2.347h-3.87l-.444,2.347h4.266Zm-.048,2.9H90.79l-.571,3.013H95.1Zm-.063,3.743H90.076l-.777,4.06h5.725Zm-5.186-3.743H85.541l-1.189,3.013h4.885Zm-7.486,7.8h5.725l.92-4.06H84.05Zm26.327,0-1.618-4.06H102.13l.9,4.06ZM98.577,253.737H92.82l1.031-10.071h3.7Z" transform="translate(131.91 72.73)"/>
      </g>
      <g class="cls-8" transform="matrix(1, 0, 0, 1, -213.25, -305.38)">
        <path id="路径_11028-4" data-name="路径 11028" class="cls-7" d="M75.739,233.33l-4.631-9.912a1.819,1.819,0,0,0-1.554-.7H53.5a1.8,1.8,0,0,0-1.554.7l-4.631,9.912c-.412.888.111,1.665,1.205,1.665H74.5C75.628,234.98,76.151,234.218,75.739,233.33Zm-6.661-.048H48.761l1.348-3.22-.016-.016,2.823-6.661,17.24-.063,2.633,6.265-.016.016,1.554,3.68Z" transform="translate(166.07 82.66)"/>
      </g>
    </g>
  </g>
</svg>
