<svg xmlns="http://www.w3.org/2000/svg" width="403" height="79" viewBox="0 0 403 79">
  <g id="标题" transform="translate(-56 -26)">
    <g id="logo6" transform="translate(-1310 -788)">
      <g id="联合_18" data-name="联合 18" transform="translate(145 3981.207)" fill="#fff">
        <path d="M 1246.007568359375 -3119.285400390625 L 1222.20654296875 -3119.285400390625 L 1246.421875 -3143.499755859375 L 1270.221923828125 -3143.499755859375 L 1246.007568359375 -3119.285400390625 Z" stroke="none"/>
        <path d="M 1245.800537109375 -3119.785400390625 L 1269.014892578125 -3142.999755859375 L 1246.62890625 -3142.999755859375 L 1223.413696289062 -3119.785400390625 L 1245.800537109375 -3119.785400390625 M 1246.214721679688 -3118.785400390625 L 1220.999389648438 -3118.785400390625 L 1246.214721679688 -3143.999755859375 L 1271.429077148438 -3143.999755859375 L 1246.214721679688 -3118.785400390625 Z" stroke="none" fill="#fff"/>
      </g>
      <g id="联合_17" data-name="联合 17" transform="translate(184.846 3995.215)" fill="#fff">
        <path d="M 1246.007568359375 -3119.285400390625 L 1222.20654296875 -3119.285400390625 L 1246.421875 -3143.499755859375 L 1270.221923828125 -3143.499755859375 L 1246.007568359375 -3119.285400390625 Z" stroke="none"/>
        <path d="M 1247.214721679688 -3142.999755859375 L 1247.214721679688 -3121.19970703125 L 1269.014892578125 -3142.999755859375 L 1247.214721679688 -3142.999755859375 M 1245.214721679688 -3141.585693359375 L 1223.413696289062 -3119.785400390625 L 1245.214721679688 -3119.785400390625 L 1245.214721679688 -3141.585693359375 M 1246.214721679688 -3143.999755859375 L 1246.214721679688 -3118.785400390625 L 1220.999389648438 -3118.785400390625 L 1246.214721679688 -3143.999755859375 Z M 1246.214721679688 -3143.999755859375 L 1271.429077148438 -3143.999755859375 L 1246.214721679688 -3118.785400390625 L 1246.214721679688 -3143.999755859375 Z" stroke="none" fill="#fff"/>
      </g>
      <g id="联合_15" data-name="联合 15" transform="translate(145 4006.421)" fill="#029dee">
        <path d="M 1270.221923828125 -3119.285400390625 L 1246.421875 -3119.285400390625 L 1222.20654296875 -3143.499755859375 L 1246.007568359375 -3143.499755859375 L 1270.221923828125 -3119.285400390625 Z" stroke="none"/>
        <path d="M 1269.014892578125 -3119.785400390625 L 1247.214721679688 -3141.58544921875 L 1247.214721679688 -3119.785400390625 L 1269.014892578125 -3119.785400390625 M 1245.214721679688 -3121.199462890625 L 1245.214721679688 -3142.999755859375 L 1223.413696289062 -3142.999755859375 L 1245.214721679688 -3121.199462890625 M 1271.429077148438 -3118.785400390625 L 1246.214721679688 -3118.785400390625 L 1246.214721679688 -3143.999755859375 L 1271.429077148438 -3118.785400390625 Z M 1246.214721679688 -3118.785400390625 L 1220.999389648438 -3143.999755859375 L 1246.214721679688 -3143.999755859375 L 1246.214721679688 -3118.785400390625 Z" stroke="none" fill="#029dee"/>
      </g>
      <g id="联合_16" data-name="联合 16" transform="translate(184.846 3970)" fill="#029dee">
        <path d="M 1270.221923828125 -3119.285400390625 L 1246.421875 -3119.285400390625 L 1222.20654296875 -3143.499755859375 L 1246.007568359375 -3143.499755859375 L 1270.221923828125 -3119.285400390625 Z" stroke="none"/>
        <path d="M 1269.014892578125 -3119.785400390625 L 1245.800537109375 -3142.999755859375 L 1223.413696289062 -3142.999755859375 L 1246.62890625 -3119.785400390625 L 1269.014892578125 -3119.785400390625 M 1271.429077148438 -3118.785400390625 L 1246.214721679688 -3118.785400390625 L 1220.999389648438 -3143.999755859375 L 1246.214721679688 -3143.999755859375 L 1271.429077148438 -3118.785400390625 Z" stroke="none" fill="#029dee"/>
      </g>
    </g>
    <g id="组_25904" data-name="组 25904">
      <text id="_基建监控系统_" data-name=" 基建监控系统 " transform="translate(165 66)" fill="#fff" font-size="37" font-family="Orbitron" font-weight="700"><tspan x="0" y="0"> </tspan><tspan y="0" font-family="YuGothicUI-Bold, Yu Gothic UI">基建</tspan><tspan y="0" font-family="MicrosoftJhengHeiUIBold, Microsoft JhengHei UI" font-weight="400">监</tspan><tspan y="0" font-family="YuGothicUI-Bold, Yu Gothic UI">控系</tspan><tspan y="0" font-family="MicrosoftJhengHeiUIBold, Microsoft JhengHei UI" font-weight="400">统</tspan><tspan y="0"> </tspan></text>
      <text id="infrastructure_monitoring_system" data-name="infrastructure monitoring system" transform="translate(165 92)" fill="#fff" font-size="16" font-family="MyanmarText, Myanmar Text"><tspan x="0" y="0">INFRASTRUCTURE MONITORING SYSTEM</tspan></text>
    </g>
  </g>
</svg>
