<svg xmlns="http://www.w3.org/2000/svg" width="415" height="79" viewBox="0 0 415 79">
  <defs>
    <style>
      .cls-1, .cls-3, .cls-6 {
        fill: #fff;
      }

      .cls-2 {
        fill: #029dee;
      }

      .cls-3 {
        font-size: 37px;
        font-family: Orbitron;
        font-weight: 700;
      }

      .cls-4 {
        font-family: YuGothicUI-Bold, Yu Gothic UI;
      }

      .cls-5 {
        font-family: MicrosoftJhengHeiUIBold, Microsoft JhengHei UI;
        font-weight: 400;
      }

      .cls-6 {
        font-size: 16px;
        font-family: MyanmarText, Myanmar Text;
      }

      .cls-7, .cls-8, .cls-9 {
        stroke: none;
      }

      .cls-8 {
        fill: #fff;
      }

      .cls-9 {
        fill: #029dee;
      }
    </style>
  </defs>
  <g id="标题" transform="translate(-56 -26)">
    <g id="logo6" transform="translate(-1310 -788)">
      <g id="路径_46" data-name="路径 46" class="cls-1" transform="translate(1391.215 837.207)">
        <path class="cls-7" d="M 0.5000028014183044 24.00774192810059 L 0.5000028014183044 0.5000028014183044 L 24.00774192810059 0.5000028014183044 L 0.5000028014183044 24.00774192810059 Z"/>
        <path class="cls-8" d="M 1.000001907348633 1.000001907348633 L 1.000001907348633 22.80062294006348 L 22.80062294006348 1.000001907348633 L 1.000001907348633 1.000001907348633 M 1.9073486328125e-06 1.9073486328125e-06 L 25.21484375 1.9073486328125e-06 L 1.9073486328125e-06 25.21484375 L 1.9073486328125e-06 1.9073486328125e-06 Z"/>
      </g>
      <g id="路径_52" data-name="路径 52" class="cls-1" transform="translate(1431.061 876.43) rotate(180)">
        <path class="cls-7" d="M 0.5000028014183044 24.00774192810059 L 0.5000028014183044 0.5000028014183044 L 24.00774192810059 0.5000028014183044 L 0.5000028014183044 24.00774192810059 Z"/>
        <path class="cls-8" d="M 1.000001907348633 1.000001907348633 L 1.000001907348633 22.80062294006348 L 22.80062294006348 1.000001907348633 L 1.000001907348633 1.000001907348633 M 1.9073486328125e-06 1.9073486328125e-06 L 25.21484375 1.9073486328125e-06 L 1.9073486328125e-06 25.21484375 L 1.9073486328125e-06 1.9073486328125e-06 Z"/>
      </g>
      <g id="路径_49" data-name="路径 49" class="cls-2" transform="translate(1366 862.421)">
        <path class="cls-7" d="M 24.71484375 24.00774192810059 L 1.20710277557373 0.5000028014183044 L 24.71484375 0.5000028014183044 L 24.71484375 24.00774192810059 Z"/>
        <path class="cls-9" d="M 2.414222717285156 1.000001907348633 L 24.21484375 22.80062294006348 L 24.21484375 1.000001907348633 L 2.414222717285156 1.000001907348633 M 1.9073486328125e-06 1.9073486328125e-06 L 25.21484375 1.9073486328125e-06 L 25.21484375 25.21484375 L 1.9073486328125e-06 1.9073486328125e-06 Z"/>
      </g>
      <g id="路径_51" data-name="路径 51" class="cls-2" transform="translate(1456.275 851.215) rotate(180)">
        <path class="cls-7" d="M 24.71484375 24.00774192810059 L 1.20710277557373 0.5000028014183044 L 24.71484375 0.5000028014183044 L 24.71484375 24.00774192810059 Z"/>
        <path class="cls-9" d="M 2.414222717285156 1.000001907348633 L 24.21484375 22.80062294006348 L 24.21484375 1.000001907348633 L 2.414222717285156 1.000001907348633 M 1.9073486328125e-06 1.9073486328125e-06 L 25.21484375 1.9073486328125e-06 L 25.21484375 25.21484375 L 1.9073486328125e-06 1.9073486328125e-06 Z"/>
      </g>
      <g id="路径_47" data-name="路径 47" class="cls-1" transform="translate(1391.215 862.421) rotate(180)">
        <path class="cls-7" d="M 0.5000028014183044 24.00774192810059 L 0.5000028014183044 0.5000028014183044 L 24.00774192810059 0.5000028014183044 L 0.5000028014183044 24.00774192810059 Z"/>
        <path class="cls-8" d="M 1.000001907348633 1.000001907348633 L 1.000001907348633 22.80062294006348 L 22.80062294006348 1.000001907348633 L 1.000001907348633 1.000001907348633 M 1.9073486328125e-06 1.9073486328125e-06 L 25.21484375 1.9073486328125e-06 L 1.9073486328125e-06 25.21484375 L 1.9073486328125e-06 1.9073486328125e-06 Z"/>
      </g>
      <g id="路径_53" data-name="路径 53" class="cls-1" transform="translate(1431.061 851.215)">
        <path class="cls-7" d="M 0.5000028014183044 24.00774192810059 L 0.5000028014183044 0.5000028014183044 L 24.00774192810059 0.5000028014183044 L 0.5000028014183044 24.00774192810059 Z"/>
        <path class="cls-8" d="M 1.000001907348633 1.000001907348633 L 1.000001907348633 22.80062294006348 L 22.80062294006348 1.000001907348633 L 1.000001907348633 1.000001907348633 M 1.9073486328125e-06 1.9073486328125e-06 L 25.21484375 1.9073486328125e-06 L 1.9073486328125e-06 25.21484375 L 1.9073486328125e-06 1.9073486328125e-06 Z"/>
      </g>
      <g id="路径_48" data-name="路径 48" class="cls-2" transform="translate(1391.215 862.421)">
        <path class="cls-7" d="M 24.00774192810059 24.71484375 L 0.5000028014183044 24.71484375 L 0.5000028014183044 1.20710277557373 L 24.00774192810059 24.71484375 Z"/>
        <path class="cls-9" d="M 22.80062294006348 24.21484375 L 1.000002861022949 2.414222717285156 L 1.000002861022949 24.21484375 L 22.80062294006348 24.21484375 M 25.21484375 25.21484375 L 2.828674269039766e-06 25.21484375 L 2.828674269039766e-06 2.828674269039766e-06 L 25.21484375 25.21484375 Z"/>
      </g>
      <g id="路径_50" data-name="路径 50" class="cls-2" transform="translate(1431.061 851.215) rotate(180)">
        <path class="cls-7" d="M 24.00774192810059 24.71484375 L 0.5000028014183044 24.71484375 L 0.5000028014183044 1.20710277557373 L 24.00774192810059 24.71484375 Z"/>
        <path class="cls-9" d="M 22.80062294006348 24.21484375 L 1.000002861022949 2.414222717285156 L 1.000002861022949 24.21484375 L 22.80062294006348 24.21484375 M 25.21484375 25.21484375 L 2.828674269039766e-06 25.21484375 L 2.828674269039766e-06 2.828674269039766e-06 L 25.21484375 25.21484375 Z"/>
      </g>
    </g>
    <text id="_基建监控系统_" data-name=" 基建监控系统 " class="cls-3" transform="translate(287 66)"><tspan x="-122.322" y="0"> </tspan><tspan class="cls-4" y="0">基建</tspan><tspan class="cls-5" y="0">监</tspan><tspan class="cls-4" y="0">控系</tspan><tspan class="cls-5" y="0">统</tspan><tspan y="0"> </tspan></text>
    <text id="infrastructure_monitoring_system" data-name="infrastructure monitoring system" class="cls-6" transform="translate(324 92)"><tspan x="-146.824" y="0">INFRASTRUCTURE MONITORING SYSTEM</tspan></text>
  </g>
</svg>
