<svg xmlns="http://www.w3.org/2000/svg" xmlns:xlink="http://www.w3.org/1999/xlink" width="113.3" height="102.8" viewBox="0 0 113.3 102.8">
  <defs>
    <linearGradient id="linear-gradient" x1="-0.001" y1="0.507" x2="1" y2="0.507" gradientUnits="objectBoundingBox">
      <stop offset="0" stop-color="#dee7ef"/>
      <stop offset="0.374" stop-color="#edf2f7"/>
      <stop offset="0.62" stop-color="#e3ebf2"/>
      <stop offset="1" stop-color="#ccdae6"/>
    </linearGradient>
    <linearGradient id="linear-gradient-2" x1="-0.001" y1="0.509" x2="1" y2="0.509" gradientUnits="objectBoundingBox">
      <stop offset="0" stop-color="#ccdae6"/>
      <stop offset="0.129" stop-color="#dae4ec"/>
      <stop offset="0.385" stop-color="#f2f5f7"/>
      <stop offset="0.775" stop-color="#e5eff7"/>
      <stop offset="1" stop-color="#dcebf7"/>
    </linearGradient>
    <linearGradient id="linear-gradient-3" x1="0.005" y1="0.505" x2="0.999" y2="0.505" gradientUnits="objectBoundingBox">
      <stop offset="0" stop-color="#ccdae6"/>
      <stop offset="0.076" stop-color="#d1dee9"/>
      <stop offset="0.434" stop-color="#e5edf6"/>
      <stop offset="0.678" stop-color="#ecf3fa"/>
      <stop offset="0.989" stop-color="#d8e2eb"/>
    </linearGradient>
    <linearGradient id="linear-gradient-4" x1="0.5" y1="1" x2="0.5" gradientUnits="objectBoundingBox">
      <stop offset="0" stop-color="#c2e3ff"/>
      <stop offset="0.049" stop-color="#c6e5ff"/>
      <stop offset="0.403" stop-color="#def1ff"/>
      <stop offset="0.729" stop-color="#edf8ff"/>
      <stop offset="1" stop-color="#f2fbff"/>
    </linearGradient>
    <linearGradient id="linear-gradient-5" x1="0.5" y1="1" x2="0.5" y2="0.001" gradientUnits="objectBoundingBox">
      <stop offset="0" stop-color="#c2e3ff"/>
      <stop offset="0.101" stop-color="#cbe7ff"/>
      <stop offset="0.417" stop-color="#e0f2ff"/>
      <stop offset="0.721" stop-color="#eef9ff"/>
      <stop offset="1" stop-color="#f2fbff"/>
    </linearGradient>
    <linearGradient id="linear-gradient-6" x1="0.5" y1="1.002" x2="0.5" y2="0" xlink:href="#linear-gradient-5"/>
  </defs>
  <g id="组_25806" data-name="组 25806" transform="translate(-634.1 -427.4)">
    <g id="组_25805" data-name="组 25805">
      <g id="组_25802" data-name="组 25802">
        <path id="路径_11057" data-name="路径 11057" d="M702.6,510.1a15.481,15.481,0,0,1-7.8-1.9,11.109,11.109,0,0,0-5.5-1.3,10.687,10.687,0,0,0-5.4,1.3,16.961,16.961,0,0,1-15.6,0,10.98,10.98,0,0,0-5.4-1.3,2.8,2.8,0,0,1,0-5.6,15.481,15.481,0,0,1,7.8,1.9,10.98,10.98,0,0,0,5.4,1.3,10.687,10.687,0,0,0,5.4-1.3,16.961,16.961,0,0,1,15.6,0,11.109,11.109,0,0,0,5.5,1.3,11.41,11.41,0,0,0,5.5-1.3,15.481,15.481,0,0,1,7.8-1.9,2.8,2.8,0,0,1,0,5.6,11.41,11.41,0,0,0-5.5,1.3A14.887,14.887,0,0,1,702.6,510.1Z" fill="url(#linear-gradient)"/>
      </g>
      <g id="组_25803" data-name="组 25803">
        <path id="路径_11058" data-name="路径 11058" d="M702.6,530.2a15.48,15.48,0,0,1-7.8-1.9,11.109,11.109,0,0,0-5.5-1.3,10.687,10.687,0,0,0-5.4,1.3,16.96,16.96,0,0,1-15.6,0,10.98,10.98,0,0,0-5.4-1.3,2.8,2.8,0,0,1-2.8-2.8,2.734,2.734,0,0,1,2.8-2.8,15.48,15.48,0,0,1,7.8,1.9,10.98,10.98,0,0,0,5.4,1.3,10.687,10.687,0,0,0,5.4-1.3,16.96,16.96,0,0,1,15.6,0,11.109,11.109,0,0,0,5.5,1.3,11.41,11.41,0,0,0,5.5-1.3,15.48,15.48,0,0,1,7.8-1.9,2.8,2.8,0,0,1,2.8,2.8,2.734,2.734,0,0,1-2.8,2.8,11.41,11.41,0,0,0-5.5,1.3A14.887,14.887,0,0,1,702.6,530.2Z" fill="url(#linear-gradient-2)"/>
      </g>
      <g id="组_25804" data-name="组 25804">
        <path id="路径_11059" data-name="路径 11059" d="M710.8,519.7a12.019,12.019,0,0,1-6.9-2,7.6,7.6,0,0,0-8.2,0,12.9,12.9,0,0,1-13.8,0,7.6,7.6,0,0,0-8.2,0,12.9,12.9,0,0,1-13.8,0,7.121,7.121,0,0,0-4.1-1.2,2.8,2.8,0,0,1,0-5.6,12.019,12.019,0,0,1,6.9,2,7.6,7.6,0,0,0,8.2,0,12.9,12.9,0,0,1,13.8,0,7.6,7.6,0,0,0,8.2,0,12.9,12.9,0,0,1,13.8,0,7.6,7.6,0,0,0,8.2,0,12.019,12.019,0,0,1,6.9-2,2.8,2.8,0,0,1,0,5.6,7.121,7.121,0,0,0-4.1,1.2A12.02,12.02,0,0,1,710.8,519.7Z" fill="url(#linear-gradient-3)"/>
      </g>
    </g>
    <path id="路径_11060" data-name="路径 11060" d="M726.1,499.5l-20.4-23.1a25.628,25.628,0,1,0-26.6-3.6L663,499.5Z" fill="url(#linear-gradient-4)"/>
    <circle id="椭圆_285" data-name="椭圆 285" cx="23.5" cy="23.5" r="23.5" transform="translate(700.4 452.5)" fill="url(#linear-gradient-5)"/>
    <circle id="椭圆_286" data-name="椭圆 286" cx="28.9" cy="28.9" r="28.9" transform="translate(634.1 441.6)" fill="url(#linear-gradient-6)"/>
  </g>
</svg>
