<svg xmlns="http://www.w3.org/2000/svg" xmlns:xlink="http://www.w3.org/1999/xlink" width="87.5" height="92.2" viewBox="0 0 87.5 92.2">
  <defs>
    <linearGradient id="linear-gradient" x1="-0.002" y1="0.509" x2="0.998" y2="0.509" gradientUnits="objectBoundingBox">
      <stop offset="0" stop-color="#e3edf7"/>
      <stop offset="0.264" stop-color="#d9e8f7"/>
      <stop offset="0.705" stop-color="#c0dbf6"/>
      <stop offset="1" stop-color="#abd1f5"/>
    </linearGradient>
    <linearGradient id="linear-gradient-2" x1="-0.002" y1="0.51" x2="0.998" y2="0.51" gradientUnits="objectBoundingBox">
      <stop offset="0" stop-color="#add6f7"/>
      <stop offset="0.221" stop-color="#d3e7f7"/>
      <stop offset="0.388" stop-color="#ebf2f7"/>
      <stop offset="0.739" stop-color="#deecf7"/>
      <stop offset="1" stop-color="#d2e7f7"/>
    </linearGradient>
    <linearGradient id="linear-gradient-3" x1="0.004" y1="0.506" x2="0.998" y2="0.506" gradientUnits="objectBoundingBox">
      <stop offset="0" stop-color="#b5d8f5"/>
      <stop offset="0.152" stop-color="#c1def7"/>
      <stop offset="0.465" stop-color="#d5e8f9"/>
      <stop offset="0.678" stop-color="#dcebfa"/>
      <stop offset="0.989" stop-color="#d5e6f5"/>
    </linearGradient>
    <linearGradient id="linear-gradient-4" x1="-2.915" y1="7.351" x2="-2.882" y2="8.388" gradientUnits="objectBoundingBox">
      <stop offset="0" stop-color="#ffe53d"/>
      <stop offset="0.343" stop-color="#ffe03d"/>
      <stop offset="0.765" stop-color="#ffd13d"/>
      <stop offset="1" stop-color="#ffc53d"/>
    </linearGradient>
    <linearGradient id="linear-gradient-5" x1="0.484" y1="0.002" x2="0.514" y2="0.988" xlink:href="#linear-gradient-4"/>
    <linearGradient id="linear-gradient-6" x1="0.487" y1="0.002" x2="0.517" y2="0.988" xlink:href="#linear-gradient-4"/>
    <linearGradient id="linear-gradient-7" x1="0.485" y1="0.002" x2="0.515" y2="0.988" xlink:href="#linear-gradient-4"/>
  </defs>
  <g id="组_25895" data-name="组 25895" transform="translate(-270.9 -597.6)">
    <g id="组_25893" data-name="组 25893">
      <g id="组_25890" data-name="组 25890">
        <path id="路径_11120" data-name="路径 11120" d="M320.5,669.7a15.48,15.48,0,0,1-7.8-1.9,11.109,11.109,0,0,0-5.5-1.3,10.687,10.687,0,0,0-5.4,1.3,16.96,16.96,0,0,1-15.6,0,10.98,10.98,0,0,0-5.4-1.3,2.8,2.8,0,0,1-2.8-2.8,2.734,2.734,0,0,1,2.8-2.8,15.48,15.48,0,0,1,7.8,1.9,10.98,10.98,0,0,0,5.4,1.3,10.687,10.687,0,0,0,5.4-1.3,16.96,16.96,0,0,1,15.6,0,11.109,11.109,0,0,0,5.5,1.3,11.41,11.41,0,0,0,5.5-1.3,15.48,15.48,0,0,1,7.8-1.9,2.8,2.8,0,0,1,2.8,2.8,2.734,2.734,0,0,1-2.8,2.8,11.41,11.41,0,0,0-5.5,1.3A15.48,15.48,0,0,1,320.5,669.7Z" fill="url(#linear-gradient)"/>
      </g>
      <g id="组_25891" data-name="组 25891">
        <path id="路径_11121" data-name="路径 11121" d="M320.5,689.8a15.48,15.48,0,0,1-7.8-1.9,11.109,11.109,0,0,0-5.5-1.3,10.687,10.687,0,0,0-5.4,1.3,16.96,16.96,0,0,1-15.6,0,10.98,10.98,0,0,0-5.4-1.3,2.8,2.8,0,0,1-2.8-2.8,2.734,2.734,0,0,1,2.8-2.8,15.48,15.48,0,0,1,7.8,1.9,10.98,10.98,0,0,0,5.4,1.3,10.687,10.687,0,0,0,5.4-1.3,16.96,16.96,0,0,1,15.6,0,11.109,11.109,0,0,0,5.5,1.3,11.41,11.41,0,0,0,5.5-1.3,15.48,15.48,0,0,1,7.8-1.9,2.8,2.8,0,0,1,2.8,2.8,2.734,2.734,0,0,1-2.8,2.8,11.41,11.41,0,0,0-5.5,1.3A15.48,15.48,0,0,1,320.5,689.8Z" fill="url(#linear-gradient-2)"/>
      </g>
      <g id="组_25892" data-name="组 25892">
        <path id="路径_11122" data-name="路径 11122" d="M328.7,679.3a12.019,12.019,0,0,1-6.9-2,7.6,7.6,0,0,0-8.2,0,12.9,12.9,0,0,1-13.8,0,7.6,7.6,0,0,0-8.2,0,12.9,12.9,0,0,1-13.8,0,7.121,7.121,0,0,0-4.1-1.2,2.8,2.8,0,0,1-2.8-2.8,2.734,2.734,0,0,1,2.8-2.8,12.019,12.019,0,0,1,6.9,2,7.6,7.6,0,0,0,8.2,0,12.9,12.9,0,0,1,13.8,0,7.6,7.6,0,0,0,8.2,0,12.9,12.9,0,0,1,13.8,0,7.6,7.6,0,0,0,8.2,0,12.019,12.019,0,0,1,6.9-2,2.8,2.8,0,0,1,2.8,2.8,2.734,2.734,0,0,1-2.8,2.8,7.121,7.121,0,0,0-4.1,1.2A12.566,12.566,0,0,1,328.7,679.3Z" fill="url(#linear-gradient-3)"/>
      </g>
    </g>
    <path id="路径_11123" data-name="路径 11123" d="M289.7,660.7h38.1c.2-1.4-.1.6.1-.9a31.464,31.464,0,0,1-20.5-25.5A30.874,30.874,0,0,1,313,612a1.611,1.611,0,0,0-1.2-2.6,31.452,31.452,0,0,0-29.2,47.4A8.66,8.66,0,0,0,289.7,660.7Z" fill="url(#linear-gradient-4)"/>
    <path id="路径_11124" data-name="路径 11124" d="M338.9,597.6l2.3,4.1,4.1,2.2-4.1,2.3-2.3,4.1-2.2-4.1-4.1-2.3,4.1-2.2Z" fill="url(#linear-gradient-5)"/>
    <g id="组_25894" data-name="组 25894">
      <path id="路径_11125" data-name="路径 11125" d="M325.8,615.5l2.2,4.1,4.1,2.2-4.1,2.3-2.2,4.1-2.3-4.1-4.1-2.3,4.1-2.2Z" fill="url(#linear-gradient-6)"/>
      <path id="路径_11126" data-name="路径 11126" d="M352.1,615.5l2.2,4.1,4.1,2.2-4.1,2.3-2.2,4.1-2.2-4.1-4.1-2.3,4.1-2.2Z" fill="url(#linear-gradient-7)"/>
    </g>
  </g>
</svg>
