<svg xmlns="http://www.w3.org/2000/svg" xmlns:xlink="http://www.w3.org/1999/xlink" width="145.5" height="88.9" viewBox="0 0 145.5 88.9">
  <defs>
    <linearGradient id="linear-gradient" x1="0.5" y1="0.999" x2="0.5" y2="-0.001" gradientUnits="objectBoundingBox">
      <stop offset="0" stop-color="#b4d2ed"/>
      <stop offset="0.092" stop-color="#bcd7ef"/>
      <stop offset="0.43" stop-color="#d4e7f5"/>
      <stop offset="0.742" stop-color="#e3f1f9"/>
      <stop offset="1" stop-color="#e8f4fa"/>
    </linearGradient>
    <linearGradient id="linear-gradient-2" x1="0.5" y1="0.999" x2="0.5" gradientUnits="objectBoundingBox">
      <stop offset="0" stop-color="#b2d1eb"/>
      <stop offset="0.165" stop-color="#c2dbef"/>
      <stop offset="0.458" stop-color="#d7e9f5"/>
      <stop offset="0.741" stop-color="#e5f2f9"/>
      <stop offset="1" stop-color="#e9f5fa"/>
    </linearGradient>
    <linearGradient id="linear-gradient-3" x1="0.5" y1="1.001" x2="0.5" y2="-0.001" xlink:href="#linear-gradient-2"/>
    <linearGradient id="linear-gradient-4" x1="0.5" y1="1.001" x2="0.5" y2="-0.001" xlink:href="#linear-gradient"/>
    <linearGradient id="linear-gradient-5" x1="0.5" y1="0.999" x2="0.5" y2="0" xlink:href="#linear-gradient-2"/>
    <linearGradient id="linear-gradient-6" x1="0.5" y1="1.001" x2="0.5" y2="-0.001" xlink:href="#linear-gradient-2"/>
  </defs>
  <g id="组_25809" data-name="组 25809" transform="translate(-56.2 -256.3)">
    <g id="组_25807" data-name="组 25807">
      <path id="路径_11061" data-name="路径 11061" d="M148.2,328.4l-20.4-23.1a25.628,25.628,0,1,0-26.6-3.6L85.1,328.3h63.1Z" fill="url(#linear-gradient)"/>
      <circle id="椭圆_287" data-name="椭圆 287" cx="23.5" cy="23.5" r="23.5" transform="translate(122.5 281.4)" fill="url(#linear-gradient-2)"/>
      <circle id="椭圆_288" data-name="椭圆 288" cx="28.9" cy="28.9" r="28.9" transform="translate(56.2 270.5)" fill="url(#linear-gradient-3)"/>
    </g>
    <g id="组_25808" data-name="组 25808">
      <path id="路径_11062" data-name="路径 11062" d="M180.4,345.1l-20.4-23a25.628,25.628,0,1,0-26.6-3.6l-16.1,26.6Z" fill="url(#linear-gradient-4)"/>
      <circle id="椭圆_289" data-name="椭圆 289" cx="23.5" cy="23.5" r="23.5" transform="translate(154.7 298.2)" fill="url(#linear-gradient-5)"/>
      <circle id="椭圆_290" data-name="椭圆 290" cx="28.9" cy="28.9" r="28.9" transform="translate(88.4 287.3)" fill="url(#linear-gradient-6)"/>
    </g>
  </g>
</svg>
