<svg xmlns="http://www.w3.org/2000/svg" xmlns:xlink="http://www.w3.org/1999/xlink" width="127.5" height="115.9" viewBox="0 0 127.5 115.9">
  <defs>
    <linearGradient id="linear-gradient" x1="0.5" y1="1.001" x2="0.5" y2="-0.001" gradientUnits="objectBoundingBox">
      <stop offset="0" stop-color="#c2e3ff"/>
      <stop offset="0.049" stop-color="#c6e5ff"/>
      <stop offset="0.403" stop-color="#def1ff"/>
      <stop offset="0.729" stop-color="#edf8ff"/>
      <stop offset="1" stop-color="#f2fbff"/>
    </linearGradient>
    <linearGradient id="linear-gradient-2" x1="0.501" y1="0.999" x2="0.501" gradientUnits="objectBoundingBox">
      <stop offset="0" stop-color="#c2e3ff"/>
      <stop offset="0.101" stop-color="#cbe7ff"/>
      <stop offset="0.417" stop-color="#e0f2ff"/>
      <stop offset="0.721" stop-color="#eef9ff"/>
      <stop offset="1" stop-color="#f2fbff"/>
    </linearGradient>
    <linearGradient id="linear-gradient-3" x1="0.501" y1="1.001" x2="0.501" y2="-0.001" xlink:href="#linear-gradient-2"/>
    <linearGradient id="linear-gradient-4" x1="0.001" y1="0.51" x2="1" y2="0.51" gradientUnits="objectBoundingBox">
      <stop offset="0" stop-color="#ccdae6"/>
      <stop offset="0.129" stop-color="#dae4ec"/>
      <stop offset="0.385" stop-color="#f2f5f7"/>
      <stop offset="0.716" stop-color="#e5eff7"/>
      <stop offset="1" stop-color="#d7e8f7"/>
    </linearGradient>
    <linearGradient id="linear-gradient-5" x1="0.001" y1="0.504" x2="1.001" y2="0.504" gradientUnits="objectBoundingBox">
      <stop offset="0" stop-color="#ccdae6"/>
      <stop offset="0.076" stop-color="#d1dee9"/>
      <stop offset="0.434" stop-color="#e5edf6"/>
      <stop offset="0.678" stop-color="#ecf3fa"/>
      <stop offset="0.989" stop-color="#d8e2eb"/>
    </linearGradient>
    <linearGradient id="linear-gradient-6" x1="0.003" y1="0.503" x2="0.999" y2="0.503" gradientUnits="objectBoundingBox">
      <stop offset="0" stop-color="#f2f5f7"/>
      <stop offset="0.635" stop-color="#e5eff7"/>
      <stop offset="1" stop-color="#dcebf7"/>
    </linearGradient>
    <linearGradient id="linear-gradient-7" x1="0" y1="0.502" x2="0.999" y2="0.502" xlink:href="#linear-gradient-4"/>
    <linearGradient id="linear-gradient-8" x1="0.001" y1="0.51" x2="0.997" y2="0.51" gradientUnits="objectBoundingBox">
      <stop offset="0" stop-color="#dcebf7"/>
      <stop offset="0.365" stop-color="#e5eff7"/>
      <stop offset="1" stop-color="#f2f5f7"/>
    </linearGradient>
  </defs>
  <g id="组_25902" data-name="组 25902" transform="translate(-628.4 -585)">
    <path id="路径_11127" data-name="路径 11127" d="M720.4,657,700,634a25.628,25.628,0,1,0-26.6-3.6L657.3,657Z" fill="url(#linear-gradient)"/>
    <circle id="椭圆_308" data-name="椭圆 308" cx="23.5" cy="23.5" r="23.5" transform="translate(694.7 610.1)" fill="url(#linear-gradient-2)"/>
    <circle id="椭圆_309" data-name="椭圆 309" cx="28.9" cy="28.9" r="28.9" transform="translate(628.4 599.2)" fill="url(#linear-gradient-3)"/>
    <g id="组_25901" data-name="组 25901">
      <g id="组_25896" data-name="组 25896">
        <path id="路径_11128" data-name="路径 11128" d="M703,665.2H652.9a2.8,2.8,0,0,1,0-5.6H703a2.8,2.8,0,0,1,0,5.6Z" fill="url(#linear-gradient-4)"/>
      </g>
      <g id="组_25897" data-name="组 25897">
        <path id="路径_11129" data-name="路径 11129" d="M735.1,665.2H714a2.8,2.8,0,0,1,0-5.6h21.1a9.859,9.859,0,0,0,9.9-9.9,9.983,9.983,0,0,0-2.2-6.2,2.772,2.772,0,0,1,4.3-3.5,15.208,15.208,0,0,1,3.4,9.6A15.451,15.451,0,0,1,735.1,665.2Z" fill="url(#linear-gradient-5)"/>
      </g>
      <g id="组_25898" data-name="组 25898">
        <path id="路径_11130" data-name="路径 11130" d="M652.9,675.6H635a2.8,2.8,0,0,1,0-5.6h17.9a2.8,2.8,0,0,1,2.8,2.8A2.862,2.862,0,0,1,652.9,675.6Z" fill="url(#linear-gradient-6)"/>
      </g>
      <g id="组_25899" data-name="组 25899">
        <path id="路径_11131" data-name="路径 11131" d="M711.2,700.9a2.8,2.8,0,0,1-2.8-2.8,2.734,2.734,0,0,1,2.8-2.8,9.9,9.9,0,0,0,0-19.8H663.5a2.8,2.8,0,0,1,0-5.6h47.7a15.5,15.5,0,0,1,0,31Z" fill="url(#linear-gradient-7)"/>
      </g>
      <g id="组_25900" data-name="组 25900">
        <path id="路径_11132" data-name="路径 11132" d="M753.1,675.4H732.2a2.8,2.8,0,0,1-2.8-2.8,2.734,2.734,0,0,1,2.8-2.8h20.9a2.8,2.8,0,0,1,0,5.6Z" fill="url(#linear-gradient-8)"/>
      </g>
    </g>
  </g>
</svg>
