<svg xmlns="http://www.w3.org/2000/svg" xmlns:xlink="http://www.w3.org/1999/xlink" width="163.75" height="170.75" viewBox="0 0 163.75 170.75">
  <defs>
    <linearGradient id="linear-gradient" x1="-0.003" y1="0.503" x2="0.994" y2="0.503" gradientUnits="objectBoundingBox">
      <stop offset="0" stop-color="#74b8f2"/>
      <stop offset="0.911" stop-color="#cdedfe"/>
      <stop offset="1" stop-color="#d6f2ff"/>
    </linearGradient>
    <linearGradient id="linear-gradient-2" x1="0" y1="0.501" x2="0.995" y2="0.501" xlink:href="#linear-gradient"/>
    <linearGradient id="linear-gradient-3" x1="-0.004" y1="0.503" x2="0.993" y2="0.503" xlink:href="#linear-gradient"/>
    <linearGradient id="linear-gradient-4" x1="-0.001" y1="0.501" x2="0.994" y2="0.501" xlink:href="#linear-gradient"/>
    <linearGradient id="linear-gradient-5" x1="-0.002" y1="0.503" x2="0.995" y2="0.503" xlink:href="#linear-gradient"/>
    <linearGradient id="linear-gradient-6" x1="0.001" y1="0.501" x2="0.996" y2="0.501" xlink:href="#linear-gradient"/>
    <linearGradient id="linear-gradient-7" x1="0.484" y1="0.004" x2="0.514" y2="0.991" gradientUnits="objectBoundingBox">
      <stop offset="0" stop-color="#ffe53d"/>
      <stop offset="0.343" stop-color="#ffe03d"/>
      <stop offset="0.765" stop-color="#ffd13d"/>
      <stop offset="1" stop-color="#ffc53d"/>
    </linearGradient>
    <linearGradient id="linear-gradient-8" x1="0.501" y1="1.001" x2="0.501" y2="0.001" gradientUnits="objectBoundingBox">
      <stop offset="0" stop-color="#c2e3ff"/>
      <stop offset="0.049" stop-color="#c6e5ff"/>
      <stop offset="0.403" stop-color="#def1ff"/>
      <stop offset="0.729" stop-color="#edf8ff"/>
      <stop offset="1" stop-color="#f2fbff"/>
    </linearGradient>
    <linearGradient id="linear-gradient-9" x1="0.499" y1="0.999" x2="0.499" gradientUnits="objectBoundingBox">
      <stop offset="0" stop-color="#c2e3ff"/>
      <stop offset="0.101" stop-color="#cbe7ff"/>
      <stop offset="0.417" stop-color="#e0f2ff"/>
      <stop offset="0.721" stop-color="#eef9ff"/>
      <stop offset="1" stop-color="#f2fbff"/>
    </linearGradient>
    <linearGradient id="linear-gradient-10" x1="0.499" y1="1.001" x2="0.499" y2="-0.001" xlink:href="#linear-gradient-9"/>
  </defs>
  <g id="组_25791" data-name="组 25791" transform="translate(-420.25 -35.95)">
    <g id="组_25777" data-name="组 25777">
      <path id="路径_11042" data-name="路径 11042" d="M497.4,206.7a2.75,2.75,0,0,1-1.9-4.7L508,189.5a2.758,2.758,0,1,1,3.9,3.9l-12.5,12.5A2.709,2.709,0,0,1,497.4,206.7Z" fill="url(#linear-gradient)"/>
    </g>
    <g id="组_25778" data-name="组 25778">
      <path id="路径_11043" data-name="路径 11043" d="M518.9,185.2a2.75,2.75,0,0,1-1.9-4.7l12.7-12.7a2.758,2.758,0,0,1,3.9,3.9l-12.7,12.7A3.176,3.176,0,0,1,518.9,185.2Z" fill="url(#linear-gradient-2)"/>
    </g>
    <g id="组_25779" data-name="组 25779">
      <path id="路径_11044" data-name="路径 11044" d="M515.7,206.7a2.75,2.75,0,0,1-1.9-4.7l12.5-12.5a2.758,2.758,0,1,1,3.9,3.9l-12.5,12.5A2.709,2.709,0,0,1,515.7,206.7Z" fill="url(#linear-gradient-3)"/>
    </g>
    <g id="组_25780" data-name="组 25780">
      <path id="路径_11045" data-name="路径 11045" d="M537.2,185.2a2.75,2.75,0,0,1-1.9-4.7L548,167.8a2.758,2.758,0,0,1,3.9,3.9l-12.7,12.7A3.176,3.176,0,0,1,537.2,185.2Z" fill="url(#linear-gradient-4)"/>
    </g>
    <g id="组_25781" data-name="组 25781">
      <path id="路径_11046" data-name="路径 11046" d="M479.1,206.7a2.75,2.75,0,0,1-1.9-4.7l12.5-12.5a2.758,2.758,0,1,1,3.9,3.9L481,205.9A2.364,2.364,0,0,1,479.1,206.7Z" fill="url(#linear-gradient-5)"/>
    </g>
    <g id="组_25782" data-name="组 25782">
      <path id="路径_11047" data-name="路径 11047" d="M500.6,185.2a2.75,2.75,0,0,1-1.9-4.7l12.7-12.7a2.758,2.758,0,0,1,3.9,3.9l-12.7,12.7A2.973,2.973,0,0,1,500.6,185.2Z" fill="url(#linear-gradient-6)"/>
    </g>
    <g id="组_25789" data-name="组 25789">
      <circle id="椭圆_278" data-name="椭圆 278" cx="31.4" cy="31.4" r="31.4" transform="translate(458.6 74.3)" fill="url(#linear-gradient-7)"/>
      <g id="组_25783" data-name="组 25783">
        <line id="直线_47766" data-name="直线 47766" y2="17.8" transform="translate(489.9 38.7)" fill="none" stroke="#ffe53d" stroke-linecap="round" stroke-miterlimit="10" stroke-width="5.5"/>
      </g>
      <g id="组_25784" data-name="组 25784">
        <line id="直线_47767" data-name="直线 47767" x2="12.6" y2="12.6" transform="translate(442.6 58.3)" fill="none" stroke="#ffc53d" stroke-linecap="round" stroke-miterlimit="10" stroke-width="5.5"/>
      </g>
      <g id="组_25785" data-name="组 25785">
        <line id="直线_47768" data-name="直线 47768" x2="17.8" transform="translate(423 105.7)" fill="none" stroke="#ffe53d" stroke-linecap="round" stroke-miterlimit="10" stroke-width="5.5"/>
      </g>
      <g id="组_25786" data-name="组 25786">
        <line id="直线_47769" data-name="直线 47769" y1="12.6" x2="12.6" transform="translate(442.6 140.4)" fill="none" stroke="#ffc53d" stroke-linecap="round" stroke-miterlimit="10" stroke-width="5.5"/>
      </g>
      <g id="组_25787" data-name="组 25787">
        <line id="直线_47770" data-name="直线 47770" x1="12.5" y1="12.6" transform="translate(524.7 140.4)" fill="none" stroke="#ffe53d" stroke-linecap="round" stroke-miterlimit="10" stroke-width="5.5"/>
      </g>
      <g id="组_25788" data-name="组 25788">
        <line id="直线_47771" data-name="直线 47771" x1="12.5" y2="12.6" transform="translate(524.7 58.3)" fill="none" stroke="#ffc53d" stroke-linecap="round" stroke-miterlimit="10" stroke-width="5.5"/>
      </g>
    </g>
    <g id="组_25790" data-name="组 25790">
      <path id="路径_11048" data-name="路径 11048" d="M562.6,163.6l-20.4-23.1a25.628,25.628,0,1,0-26.6-3.6l-16.1,26.6h63.1Z" fill="url(#linear-gradient-8)"/>
      <circle id="椭圆_279" data-name="椭圆 279" cx="23.5" cy="23.5" r="23.5" transform="translate(537 116.7)" fill="url(#linear-gradient-9)"/>
      <circle id="椭圆_280" data-name="椭圆 280" cx="28.9" cy="28.9" r="28.9" transform="translate(470.7 105.8)" fill="url(#linear-gradient-10)"/>
    </g>
  </g>
</svg>
