<?xml version="1.0" standalone="no"?><!DOCTYPE svg PUBLIC "-//W3C//DTD SVG 1.1//EN" "http://www.w3.org/Graphics/SVG/1.1/DTD/svg11.dtd"><svg t="1663899501596" class="icon" viewBox="0 0 1024 1024" version="1.1" xmlns="http://www.w3.org/2000/svg" p-id="4328" xmlns:xlink="http://www.w3.org/1999/xlink" width="200" height="200"><path d="M512 522.97604m-284.08575 0a284.08575 284.08575 0 1 0 568.1715 0 284.08575 284.08575 0 1 0-568.1715 0Z" fill="#E9EAEB" p-id="4329"></path><path d="M842.572509 760.575032l-20.660781-15.495587c7.747793-10.330391 15.495586-21.952081 21.95208-33.57377l21.952081 12.912988c-6.456494 12.912989-15.495586 24.534678-23.24338 36.156369zM882.602774 696.010088l-23.243379-11.62169c6.456494-12.912989 11.62169-25.825977 16.786885-38.738965l24.534678 9.039092c-6.456494 14.204288-11.62169 27.117276-18.078184 41.321563zM908.428752 626.27995l-24.534679-7.747794c3.873897-12.912989 6.456494-25.825977 9.039092-38.738966l25.825977 5.165196c-2.582598 14.204288-6.456494 27.117276-10.33039 41.321564zM922.633039 557.84111l-25.825977-2.582598c14.204288-122.673392-28.408575-242.764187-116.216898-329.281211l18.078184-18.078184c94.264817 91.682219 139.460277 219.520807 123.964691 349.941993zM858.068096 604.327869l-24.534679-6.456494c3.873897-12.912989 6.456494-25.825977 7.747794-38.738966l25.825977 3.873896c-2.582598 14.204288-6.456494 28.408575-9.039092 41.321564z" fill="#BCC0C4" p-id="4330"></path><path d="M868.398487 535.889029l-25.825978-1.291299c5.165195-73.604035-15.495586-147.208071-56.81715-206.607818l20.660782-14.204288c45.19546 64.564943 67.147541 143.334174 61.982346 222.103405zM187.883985 291.833544L167.223203 277.629256c9.039092-14.204288 19.369483-28.408575 30.991173-41.321564l19.369483 16.786886c-10.330391 12.912989-20.660782 25.825977-29.699874 38.738966zM154.310214 357.689786L129.775536 348.650694c5.165195-14.204288 12.912989-28.408575 19.369483-41.321564l23.243379 12.912989c-6.456494 11.62169-12.912989 24.534678-18.078184 37.447667zM133.649433 422.254729l-25.825978-5.165196c2.582598-14.204288 6.456494-27.117276 11.62169-41.321563l24.534678 7.747793c-3.873897 12.912989-7.747793 25.825977-10.33039 38.738966zM212.418663 795.440101c-87.808323-94.264817-127.838588-223.394704-108.469104-351.233291l25.825977 3.873896C110.406053 568.171501 147.85372 689.553594 230.496847 777.361917l-18.078184 18.078184zM193.04918 455.828499l-25.825977-5.165195c2.582598-14.204288 6.456494-28.408575 10.330391-41.321564l24.534678 7.747793c-3.873897 12.912989-6.456494 25.825977-9.039092 38.738966z" fill="#BCC0C4" p-id="4331"></path><path d="M208.544767 689.553594c-36.156368-63.273644-51.651955-138.168979-45.195461-211.773014l25.825978 2.582598c-6.456494 67.147541 7.747793 136.87768 41.321563 196.277427l-21.95208 12.912989z" fill="#BCC0C4" p-id="4332"></path><path d="M705.69483 613.366961h38.738966v25.825977h-38.738966zM705.69483 561.715006h38.738966v25.825978h-38.738966zM705.69483 510.063052h38.738966v25.825977h-38.738966zM705.69483 458.411097h38.738966v25.825977h-38.738966zM705.69483 406.759142h38.738966v25.825978h-38.738966zM279.566204 613.366961h38.738966v25.825977h-38.738966zM279.566204 561.715006h38.738966v25.825978h-38.738966zM279.566204 510.063052h38.738966v25.825977h-38.738966zM279.566204 458.411097h38.738966v25.825977h-38.738966zM279.566204 406.759142h38.738966v25.825978h-38.738966zM395.783102 716.67087h25.825977v38.738966h-25.825977zM447.435057 716.67087h25.825977v38.738966h-25.825977zM499.087011 716.67087h25.825978v38.738966h-25.825978zM550.738966 716.67087h25.825977v38.738966h-25.825977zM602.390921 716.67087h25.825977v38.738966h-25.825977zM395.783102 290.542245h25.825977v38.738966h-25.825977zM447.435057 290.542245h25.825977v38.738966h-25.825977zM499.087011 290.542245h25.825978v38.738966h-25.825978zM550.738966 290.542245h25.825977v38.738966h-25.825977zM602.390921 290.542245h25.825977v38.738966h-25.825977z" fill="#2A5082" p-id="4333"></path><path d="M357.044136 368.020177h309.911728v309.911727h-309.911728z" fill="#A3D4FF" p-id="4334"></path><path d="M679.868852 690.844893h-335.737704v-335.737705h335.737704v335.737705z m-309.911727-25.825977h284.08575v-284.085751h-284.08575v284.085751z" fill="#2A5082" p-id="4335"></path><path d="M460.348045 471.324086h103.30391v103.303909h-103.30391z" fill="#FFFFFF" p-id="4336"></path><path d="M576.564943 587.540984h-129.129886v-129.129887h129.129886v129.129887z m-103.303909-25.825978h77.477932v-77.477932h-77.477932v77.477932zM395.783102 458.411097h25.825977v25.825977h-25.825977zM395.783102 510.063052h25.825977v25.825977h-25.825977zM395.783102 561.715006h25.825977v25.825978h-25.825977zM602.390921 458.411097h25.825977v25.825977h-25.825977zM602.390921 510.063052h25.825977v25.825977h-25.825977zM602.390921 561.715006h25.825977v25.825978h-25.825977z" fill="#2A5082" p-id="4337"></path></svg>