<?xml version="1.0" standalone="no"?><!DOCTYPE svg PUBLIC "-//W3C//DTD SVG 1.1//EN" "http://www.w3.org/Graphics/SVG/1.1/DTD/svg11.dtd"><svg t="1663899538484" class="icon" viewBox="0 0 1080 1024" version="1.1" xmlns="http://www.w3.org/2000/svg" p-id="4661" xmlns:xlink="http://www.w3.org/1999/xlink" width="210.9375" height="200"><path d="M720.146405 139.210458v198.107189h66.928105c22.755556 0 40.156863 17.401307 40.156863 40.156863v327.947712c73.620915-60.235294 120.470588-151.257516 120.470588-254.326797 0-145.903268-95.037908-269.05098-227.555556-311.884967z" fill="#E9EAEB" p-id="4662"></path><path d="M787.07451 820.538562h-615.738562c-29.448366 0-53.542484-24.094118-53.542484-53.542484v-388.183006c0-29.448366 24.094118-53.542484 53.542484-53.542484v26.771242c-14.724183 0-26.771242 12.047059-26.771242 26.771242v388.183006c0 14.724183 12.047059 26.771242 26.771242 26.771242h615.738562c14.724183 0 26.771242-12.047059 26.771242-26.771242v-388.183006c0-14.724183-12.047059-26.771242-26.771242-26.771242h-26.771242v-26.771242h26.771242c29.448366 0 53.542484 24.094118 53.542483 53.542484v388.183006c0 29.448366-24.094118 53.542484-53.542483 53.542484z" fill="#2A5082" p-id="4663"></path><path d="M733.532026 378.813072h-26.771242v-267.712418h-414.954248v26.771241h-26.771242v-26.771241c0-14.724183 12.047059-26.771242 26.771242-26.771242h414.954248c14.724183 0 26.771242 12.047059 26.771242 26.771242v267.712418zM630.462745 936.993464l-22.755555-22.755556H364.088889L341.333333 936.993464l-18.739869-20.078431 30.786928-29.448366h265.035294l30.786928 29.448366zM586.290196 874.081046h-26.771242v-53.542484h-147.24183v53.542484h-26.771242v-80.313726h200.784314zM131.179085 713.453595h696.052288v26.771242h-696.052288z" fill="#2A5082" p-id="4664"></path><path d="M224.878431 646.52549h-26.771241v-468.496732c0-14.724183 12.047059-26.771242 26.771241-26.771242h414.954249c14.724183 0 26.771242 12.047059 26.771242 26.771242v307.869281h-26.771242v-307.869281h-414.954249v468.496732z" fill="#2A5082" p-id="4665"></path><path d="M198.10719 258.342484h361.411764v26.771241h-361.411764zM251.649673 204.8h26.771242v26.771242h-26.771242zM305.192157 204.8h26.771242v26.771242h-26.771242zM358.734641 204.8h26.771241v26.771242h-26.771241zM639.83268 512.669281h26.771242v26.771242h-26.771242zM706.760784 459.126797h26.771242v26.771242h-26.771242zM706.760784 405.584314h26.771242v26.771242h-26.771242z" fill="#2A5082" p-id="4666"></path><path d="M599.675817 465.819608l-21.416993-52.203922-40.156863 17.401307c-8.031373-12.047059-18.739869-21.416993-29.448366-29.448366l17.401307-40.156862-52.203922-21.416994-17.401307 40.156863c-13.385621-2.677124-28.109804-2.677124-41.495425 0l-17.401307-40.156863-52.203921 21.416994 17.401307 40.156862c-12.047059 8.031373-21.416993 18.739869-29.448366 29.448366l-40.156863-17.401307-21.416993 52.203922 40.156862 17.401307c-2.677124 13.385621-2.677124 28.109804 0 41.495425l-40.156862 17.401307 21.416993 52.203922 40.156863-17.401308c8.031373 12.047059 18.739869 21.416993 29.448366 29.448366l-17.401307 40.156863 52.203921 21.416994 17.401307-40.156863c13.385621 2.677124 28.109804 2.677124 41.495425 0l17.401307 40.156863 52.203922-21.416994-17.401307-40.156863c12.047059-8.031373 21.416993-18.739869 29.448366-29.448366l40.156863 17.401308 21.416993-52.203922-40.156863-17.401307c2.677124-13.385621 2.677124-28.109804 0-41.495425l40.156863-17.401307z" fill="#A3D4FF" p-id="4667"></path><path d="M404.245752 686.682353l-77.636602-32.12549 18.73987-44.172549c-6.69281-5.354248-12.047059-10.708497-17.401308-17.401307l-44.172549 18.739869-32.12549-77.636601 44.172549-18.73987c-1.338562-8.031373-1.338562-16.062745 0-24.094117l-44.172549-18.73987 32.12549-77.636601 44.172549 18.739869c5.354248-6.69281 10.708497-12.047059 17.401308-17.401307l-18.73987-44.172549 77.636602-32.12549 18.739869 44.172549c8.031373-1.338562 16.062745-1.338562 24.094118 0l18.739869-44.172549 77.636601 32.12549-18.739869 44.172549c6.69281 5.354248 12.047059 10.708497 17.401307 17.401307l44.172549-18.739869 32.12549 77.636601-44.172549 18.73987c1.338562 8.031373 1.338562 16.062745 0 24.094117l44.172549 18.73987-32.12549 77.636601-44.172549-18.739869c-5.354248 6.69281-10.708497 12.047059-17.401307 17.401307l18.739869 44.172549-77.636601 32.12549-18.739869-44.172549c-8.031373 1.338562-16.062745 1.338562-24.094118 0l-18.739869 44.172549z m58.896732-73.620915l16.062745 38.818301 28.109804-12.047059-16.062745-38.818301 8.031372-6.69281c10.708497-6.69281 18.739869-16.062745 26.771242-26.771242l6.69281-8.031373 38.818301 16.062745 12.047059-28.109804-38.818301-16.062745 1.338562-10.708496c2.677124-12.047059 2.677124-24.094118 0-37.479739l-1.338562-10.708497 38.818301-16.062745-12.047059-28.109804-38.818301 16.062745-6.69281-8.031372c-6.69281-10.708497-16.062745-18.739869-26.771242-26.771242l-8.031372-6.69281 16.062745-38.818301-28.109804-12.047059-16.062745 38.818301-10.708497-1.338562c-12.047059-2.677124-24.094118-2.677124-37.479739 0l-10.708496 1.338562-16.062745-38.818301-26.771242 14.724183 16.062745 38.818301-8.031373 6.69281c-10.708497 6.69281-18.739869 16.062745-26.771242 26.771242l-6.69281 8.031373-38.818301-16.062746-12.047059 28.109804 38.818301 16.062745-1.338562 10.708497c-2.677124 12.047059-2.677124 24.094118 0 37.479739l1.338562 10.708497-37.479738 14.724183 12.047058 28.109803 38.818301-16.062745 6.692811 8.031373c6.69281 10.708497 16.062745 18.739869 26.771241 26.771242l8.031373 6.69281-17.401307 37.479739 28.109804 12.047059 16.062745-38.818301 10.708496 1.338562c12.047059 2.677124 24.094118 2.677124 37.479739 0l9.369935-1.338562z" fill="#2A5082" p-id="4668"></path><path d="M485.898039 481.882353c12.047059 28.109804-1.338562 60.235294-29.448366 72.282353-28.109804 12.047059-60.235294-1.338562-72.282353-29.448366-12.047059-28.109804 1.338562-60.235294 29.448366-72.282353 28.109804-12.047059 60.235294 1.338562 72.282353 29.448366z" fill="#FFFFFF" p-id="4669"></path><path d="M435.03268 571.566013c-26.771242 0-52.203922-16.062745-64.250981-42.833987-14.724183-34.802614 2.677124-74.959477 37.479739-89.68366 34.802614-14.724183 74.959477 2.677124 89.68366 37.479739 6.69281 17.401307 6.69281 36.141176 0 52.203921-6.69281 17.401307-20.078431 30.786928-37.479739 37.479739-8.031373 4.015686-17.401307 5.354248-25.432679 5.354248z m0-109.762091c-5.354248 0-10.708497 1.338562-16.062745 2.677124-21.416993 9.369935-32.12549 33.464052-22.755556 54.881046s33.464052 32.12549 54.881046 22.755555c10.708497-4.015686 18.739869-12.047059 22.755555-22.755555 4.015686-10.708497 4.015686-21.416993 0-32.125491-6.69281-16.062745-22.755556-25.43268-38.8183-25.432679z" fill="#2A5082" p-id="4670"></path></svg>