<?xml version="1.0" standalone="no"?><!DOCTYPE svg PUBLIC "-//W3C//DTD SVG 1.1//EN" "http://www.w3.org/Graphics/SVG/1.1/DTD/svg11.dtd"><svg t="1663899549397" class="icon" viewBox="0 0 1080 1024" version="1.1" xmlns="http://www.w3.org/2000/svg" p-id="4822" xmlns:xlink="http://www.w3.org/1999/xlink" width="210.9375" height="200"><path d="M649.202614 342.671895L615.738562 261.019608l-49.526797 16.062745c-13.385621-18.739869-30.786928-36.141176-49.526798-49.526797l16.062745-49.526798-81.652287-33.464052-24.094118 46.849673c-22.755556-4.015686-46.849673-4.015686-69.605229 0l-24.094117-46.849673-81.652288 33.464052L267.712418 227.555556c-18.739869 13.385621-36.141176 30.786928-49.526797 49.526797l-49.526797-16.062745-33.464053 81.652287 46.849673 24.094118c-4.015686 22.755556-4.015686 46.849673 0 69.605229l-46.849673 24.094117 33.464053 81.652288 49.526797-16.062745c13.385621 18.739869 30.786928 36.141176 49.526797 49.526797l-16.062745 49.526798 81.652288 33.464052 24.094117-46.849673c22.755556 4.015686 46.849673 4.015686 69.605229 0l24.094118 46.849673 81.652287-33.464052-16.062745-49.526798c18.739869-13.385621 36.141176-30.786928 49.526798-49.526797l49.526797 16.062745 33.464052-81.652288-46.849673-24.094117c4.015686-22.755556 4.015686-46.849673 0-69.605229l46.849673-24.094118z" fill="#A3D4FF" p-id="4823"></path><path d="M449.756863 671.95817c-5.354248 0-9.369935-2.677124-12.047059-8.031373l-18.739869-38.8183c-18.739869 2.677124-36.141176 2.677124-54.881046 0l-18.739869 38.8183c-2.677124 6.69281-10.708497 9.369935-17.401308 6.692811l-81.652287-33.464052c-6.69281-2.677124-9.369935-9.369935-8.031373-16.062746l13.385621-40.156862c-14.724183-10.708497-26.771242-24.094118-38.8183-38.818301l-40.156863 13.385621c-6.69281 2.677124-13.385621-1.338562-16.062745-8.031373l-33.464053-81.652287c-2.677124-6.69281 0-13.385621 6.692811-17.401307l38.818301-18.73987c-2.677124-18.739869-2.677124-36.141176 0-54.881045l-38.818301-18.73987c-6.69281-2.677124-9.369935-10.708497-6.692811-17.401307l33.464053-81.652287c2.677124-6.69281 9.369935-9.369935 16.062745-8.031373l40.156863 13.385621c10.708497-14.724183 24.094118-26.771242 38.8183-38.818301l-13.385621-40.156862c-2.677124-6.69281 1.338562-13.385621 8.031373-16.062746l81.652287-33.464052c6.69281-2.677124 13.385621 0 17.401308 6.692811l18.739869 38.8183c18.739869-2.677124 36.141176-2.677124 54.881046 0l18.739869-38.8183c4.015686-9.369935 10.708497-12.047059 17.401307-9.369935l81.652288 33.464052c6.69281 2.677124 9.369935 9.369935 8.031372 16.062745l-13.385621 40.156863c14.724183 10.708497 26.771242 24.094118 38.818301 38.818301l40.156863-13.385621c6.69281-2.677124 13.385621 1.338562 16.062745 8.031372l33.464052 81.652288c2.677124 6.69281 0 13.385621-6.69281 17.401307l-38.818301 18.739869c2.677124 18.739869 2.677124 36.141176 0 54.881046l38.818301 18.739869c6.69281 2.677124 9.369935 10.708497 6.69281 17.401308l-33.464052 81.652287c-2.677124 6.69281-9.369935 9.369935-16.062745 8.031373l-40.156863-13.385621c-10.708497 14.724183-24.094118 26.771242-38.818301 38.818301l13.385621 40.156862c2.677124 6.69281-1.338562 13.385621-8.031372 16.062745L455.111111 670.619608c-1.338562 0-2.677124 1.338562-5.354248 1.338562z m-22.755556-74.959477c5.354248 0 9.369935 2.677124 12.047059 8.031372l17.401307 36.141177 58.896732-24.094118-12.047059-37.479738c-1.338562-5.354248 0-12.047059 5.354249-14.724183 17.401307-13.385621 33.464052-28.109804 46.849673-46.849674 4.015686-5.354248 9.369935-6.69281 14.724183-5.354248l37.479739 12.047059 24.094117-58.896732-36.141176-17.401307c-5.354248-2.677124-8.031373-8.031373-6.692811-14.724183 4.015686-21.416993 4.015686-44.172549 0-65.589543-1.338562-5.354248 1.338562-12.047059 6.692811-14.724183l36.141176-17.401307-24.094117-58.896732-37.479739 12.047059c-5.354248 1.338562-12.047059 0-14.724183-5.354249-13.385621-17.401307-28.109804-33.464052-46.849673-46.849673-5.354248-4.015686-6.69281-9.369935-5.354249-14.724183l12.047059-37.479738-58.896732-24.094118-17.401307 36.141176c-2.677124 5.354248-8.031373 8.031373-14.724183 6.692811-21.416993-4.015686-44.172549-4.015686-65.589542 0-5.354248 1.338562-12.047059-1.338562-14.724183-6.692811L326.60915 160.627451 267.712418 186.060131l12.047059 37.479738c1.338562 5.354248 0 12.047059-5.354248 14.724183-17.401307 13.385621-33.464052 28.109804-46.849673 46.849673-4.015686 5.354248-9.369935 6.69281-14.724183 5.354249l-37.479739-12.047059-24.094118 58.896732 36.141177 17.401307c5.354248 2.677124 8.031373 8.031373 6.69281 14.724183-4.015686 21.416993-4.015686 44.172549 0 65.589543 1.338562 5.354248-1.338562 12.047059-6.69281 14.724183l-36.141177 17.401307 24.094118 58.896732 37.479739-12.047059c5.354248-1.338562 12.047059 0 14.724183 5.354249 13.385621 17.401307 28.109804 33.464052 46.849673 46.849673 5.354248 4.015686 6.69281 9.369935 5.354248 14.724183l-12.047059 36.141176 58.896732 24.094118 17.401308-36.141177c2.677124-5.354248 8.031373-8.031373 14.724183-6.69281 21.416993 4.015686 44.172549 4.015686 65.589542 0 1.338562 0 1.338562-1.338562 2.677124-1.338562z" fill="#2A5082" p-id="4824"></path><path d="M471.173856 433.694118c-17.401307 42.833987-68.266667 64.25098-111.100653 45.511111-42.833987-17.401307-64.25098-68.266667-45.511111-111.100654 17.401307-42.833987 68.266667-64.25098 111.100653-45.511111 42.833987 17.401307 62.912418 66.928105 45.511111 111.100654z" fill="#FFFFFF" p-id="4825"></path><path d="M392.198693 499.28366c-12.047059 0-25.43268-2.677124-37.479739-8.031372-50.865359-21.416993-73.620915-78.975163-53.542483-128.501961 21.416993-50.865359 78.975163-73.620915 128.50196-53.542484 50.865359 21.416993 73.620915 78.975163 53.542484 128.501961-16.062745 38.818301-52.203922 61.573856-91.022222 61.573856z m0-169.997385c-28.109804 0-54.881046 16.062745-66.928105 44.172549-14.724183 36.141176 2.677124 78.975163 38.818301 93.699346 36.141176 14.724183 78.975163-2.677124 93.699346-38.818301 14.724183-36.141176-2.677124-78.975163-38.8183-93.699346-8.031373-4.015686-17.401307-5.354248-26.771242-5.354248z" fill="#2A5082" p-id="4826"></path><path d="M805.814379 465.819608l-13.385621-22.755556c8.031373-5.354248 14.724183-12.047059 18.739869-21.416993 4.015686-10.708497 4.015686-24.094118 0-34.802615s-13.385621-20.078431-24.094117-24.094117c-22.755556-9.369935-49.526797 1.338562-58.896732 24.094117l-24.094118-10.708496c14.724183-36.141176 57.55817-53.542484 93.699347-38.818301 17.401307 6.69281 32.12549 21.416993 38.8183 38.818301s6.69281 37.479739 0 54.881045c-6.69281 14.724183-17.401307 26.771242-30.786928 34.802615z" fill="#BCC0C4" p-id="4827"></path><path d="M934.31634 663.926797l-22.755556-56.219607-42.833987 17.401307c-9.369935-12.047059-18.739869-22.755556-30.786928-30.786928l17.401307-42.833987-56.219607-22.755556-17.401308 42.833987c-14.724183-2.677124-29.448366-2.677124-44.172549 0l-17.401307-42.833987-56.219608 22.755556 17.401308 42.833987c-12.047059 9.369935-22.755556 18.739869-30.786929 30.786928l-42.833986-17.401307-22.755556 56.219607 42.833987 17.401308c-2.677124 14.724183-2.677124 29.448366 0 44.172549l-42.833987 17.401307 22.755556 56.219608 42.833986-17.401308c9.369935 12.047059 18.739869 22.755556 30.786929 30.786929L662.588235 856.679739l56.219608 22.755555 17.401307-42.833987c14.724183 2.677124 29.448366 2.677124 44.172549 0l17.401308 42.833987 56.219607-22.755555-17.401307-42.833987c12.047059-9.369935 22.755556-18.739869 30.786928-30.786928l42.833987 17.401307 22.755556-56.219608-42.833987-17.401307c2.677124-14.724183 2.677124-29.448366 0-44.172549l44.172549-18.73987z" fill="#E9EAEB" p-id="4828"></path><path d="M799.121569 894.159477c-1.338562 0-4.015686 0-5.354249-1.338562-2.677124-1.338562-5.354248-4.015686-6.69281-6.69281l-13.385621-33.464053c-9.369935 1.338562-18.739869 1.338562-26.771242 0l-13.385621 33.464053c-1.338562 2.677124-4.015686 5.354248-6.69281 6.69281-2.677124 1.338562-6.69281 1.338562-10.708497 0L659.911111 870.065359c-6.69281-2.677124-10.708497-10.708497-6.69281-17.401307l13.385621-33.464052c-6.69281-5.354248-13.385621-12.047059-18.73987-18.739869l-33.464052 13.385621c-2.677124 1.338562-6.69281 1.338562-10.708497 0-2.677124-1.338562-5.354248-4.015686-6.69281-6.692811l-26.771242-57.55817c-2.677124-6.69281 0-14.724183 6.69281-17.401307l33.464053-13.385621c-1.338562-9.369935-1.338562-18.739869 0-26.771242l-33.464053-13.385621c-6.69281-2.677124-10.708497-10.708497-6.69281-17.401307l22.755556-56.219608c1.338562-2.677124 4.015686-5.354248 6.69281-6.69281 2.677124-1.338562 6.69281-1.338562 10.708497 0l33.464052 13.385621c5.354248-6.69281 12.047059-13.385621 18.739869-18.739869l-13.385621-33.464053c-2.677124-6.69281 0-14.724183 6.692811-17.401307l56.219608-22.755555c6.69281-2.677124 14.724183 0 17.401307 6.69281l13.385621 33.464052c9.369935-1.338562 18.739869-1.338562 26.771242 0l13.385621-33.464052c1.338562-2.677124 4.015686-5.354248 6.69281-6.69281 2.677124-1.338562 6.69281-1.338562 10.708497 0l56.219608 22.755555c6.69281 2.677124 10.708497 10.708497 6.69281 17.401307l-13.385621 33.464053c6.69281 5.354248 13.385621 12.047059 18.739869 18.739869l33.464053-13.385621c2.677124-1.338562 6.69281-1.338562 10.708496 0 2.677124 1.338562 5.354248 4.015686 6.692811 6.69281l22.755555 56.219608c2.677124 6.69281 0 14.724183-6.69281 17.401307l-33.464052 13.385621c1.338562 9.369935 1.338562 18.739869 0 26.771242l33.464052 13.385621c6.69281 2.677124 10.708497 10.708497 6.69281 17.401307L923.607843 805.814379c-1.338562 2.677124-4.015686 5.354248-6.69281 6.692811-2.677124 1.338562-6.69281 1.338562-10.708497 0l-33.464052-13.385621c-5.354248 6.69281-12.047059 13.385621-18.73987 18.739869l13.385621 33.464052c2.677124 6.69281 0 14.724183-6.69281 17.401307l-56.219608 22.755556c-2.677124 1.338562-4.015686 2.677124-5.354248 2.677124z m-18.73987-70.943791c5.354248 0 10.708497 2.677124 12.047059 8.031373l13.385621 30.786928 30.786928-13.385621-13.385621-30.786928c-2.677124-5.354248 0-12.047059 4.015687-16.062745 10.708497-8.031373 20.078431-17.401307 28.109803-28.109804 4.015686-5.354248 10.708497-6.69281 16.062746-4.015686l30.786928 13.385621 13.385621-30.786929-30.786929-13.38562c-5.354248-2.677124-9.369935-8.031373-8.031372-14.724183 2.677124-13.385621 2.677124-26.771242 0-40.156863-1.338562-6.69281 2.677124-12.047059 8.031372-14.724183l30.786929-13.385621-13.385621-30.786928-30.786928 13.385621c-5.354248 2.677124-12.047059 0-16.062746-4.015687-8.031373-10.708497-17.401307-20.078431-28.109803-28.109804-5.354248-4.015686-6.69281-10.708497-4.015687-16.062745l13.385621-30.786928-30.786928-13.385621-13.385621 30.786928c-2.677124 5.354248-8.031373 9.369935-14.724183 8.031373-13.385621-2.677124-26.771242-2.677124-40.156863 0-6.69281 1.338562-12.047059-2.677124-14.724183-8.031373l-13.385621-30.786928-30.786928 13.385621 13.385621 30.786928c2.677124 5.354248 0 12.047059-4.015686 16.062745-10.708497 8.031373-20.078431 17.401307-28.109804 28.109804-4.015686 5.354248-10.708497 6.69281-16.062745 4.015687l-30.786928-13.385621-13.385621 30.786928 30.786928 13.385621c5.354248 2.677124 9.369935 8.031373 8.031373 14.724183-2.677124 13.385621-2.677124 26.771242 0 40.156863 1.338562 6.69281-2.677124 12.047059-8.031373 14.724183l-30.786928 13.38562 13.385621 30.786929 30.786928-13.385621c5.354248-2.677124 12.047059 0 16.062745 4.015686 8.031373 10.708497 17.401307 20.078431 28.109804 28.109804 5.354248 4.015686 6.69281 10.708497 4.015686 16.062745l-13.385621 30.786928 30.786928 13.385621 13.385621-30.786928c2.677124-5.354248 8.031373-9.369935 14.724183-8.031373 13.385621 2.677124 26.771242 2.677124 40.156863 0h2.677124z" fill="#2A5082" p-id="4829"></path><path d="M914.237908 519.362092c-2.677124 0-4.015686 0-5.354248-1.338563l-41.495425-20.078431 12.047059-24.094118 29.448366 14.724183 14.724183-29.448366-29.448366-14.724183c-5.354248-2.677124-8.031373-9.369935-6.69281-14.724183 2.677124-13.385621 4.015686-25.43268 2.677124-38.8183 0-6.69281 2.677124-12.047059 9.369934-14.724183l30.786929-10.708497-10.708497-30.786928-30.786928 10.708497c-5.354248 2.677124-12.047059 0-16.062745-5.354249-6.69281-10.708497-16.062745-21.416993-25.43268-29.448366-5.354248-4.015686-6.69281-10.708497-4.015686-16.062745l14.724183-29.448366-29.448366-14.724183-14.724183 29.448366c-2.677124 5.354248-9.369935 8.031373-14.724183 6.692811-13.385621-2.677124-25.43268-4.015686-38.818301-2.677125-6.69281 0-12.047059-2.677124-14.724183-9.369934l-10.708497-30.786928-33.464052 10.708496 10.708497 30.786928-25.43268 9.369935-14.724183-44.172549c-1.338562-4.015686-1.338562-6.69281 0-10.708497 1.338562-2.677124 4.015686-5.354248 8.031372-6.69281L736.20915 214.169935c2.677124-1.338562 6.69281-1.338562 10.708497 0 2.677124 1.338562 5.354248 4.015686 6.692811 8.031372l12.047058 33.464052c9.369935 0 17.401307 0 26.771242 1.338563l16.062745-32.125491c1.338562-2.677124 4.015686-5.354248 8.031373-6.69281 4.015686-1.338562 6.69281-1.338562 10.708497 0l53.542483 26.771242c6.69281 2.677124 9.369935 10.708497 6.692811 17.401307L870.065359 295.822222c6.69281 6.69281 12.047059 12.047059 17.401308 20.078432l33.464052-12.047059c6.69281-2.677124 14.724183 1.338562 17.401307 8.031372l20.078432 56.219608c2.677124 6.69281-1.338562 14.724183-8.031373 17.401307l-33.464052 12.047059c0 9.369935 0 17.401307-1.338562 26.771242l32.12549 16.062745c6.69281 2.677124 9.369935 10.708497 6.69281 17.401307l-26.771242 53.542484c-1.338562 2.677124-4.015686 5.354248-8.031372 6.69281-2.677124 0-4.015686 1.338562-5.354249 1.338563z" fill="#BCC0C4" p-id="4830"></path><path d="M813.845752 681.328105c12.047059 29.448366-1.338562 64.25098-32.125491 77.636601-29.448366 12.047059-64.25098-1.338562-77.636601-32.12549-12.047059-29.448366 1.338562-64.25098 32.12549-77.636602 30.786928-12.047059 64.25098 2.677124 77.636602 32.125491z" fill="#FFFFFF" p-id="4831"></path><path d="M758.964706 776.366013c-28.109804 0-54.881046-17.401307-66.928105-44.172549-8.031373-17.401307-8.031373-37.479739 0-54.881046s21.416993-32.12549 38.818301-38.8183c37.479739-14.724183 78.975163 2.677124 95.037908 38.8183 8.031373 17.401307 8.031373 37.479739 0 54.881046-8.031373 17.401307-21.416993 32.12549-38.8183 38.818301-9.369935 4.015686-18.739869 5.354248-28.109804 5.354248z m0-117.793464c-5.354248 0-12.047059 1.338562-17.401307 4.015686-10.708497 4.015686-20.078431 13.385621-24.094118 24.094118-4.015686 10.708497-4.015686 24.094118 0 34.802614 9.369935 22.755556 36.141176 34.802614 60.235294 24.094118 10.708497-4.015686 20.078431-13.385621 24.094118-24.094118 4.015686-10.708497 4.015686-24.094118 0-34.802614-8.031373-17.401307-25.43268-28.109804-42.833987-28.109804z" fill="#2A5082" p-id="4832"></path></svg>